<?xml version="1.0" encoding="UTF-8" standalone="no"?>
<!-- Created with Inkscape (http://www.inkscape.org/) -->

<svg
   version="1.1"
   id="svg2"
   xml:space="preserve"
   width="111.66729"
   height="99.705009"
   viewBox="0 0 111.66729 99.705024"
   sodipodi:docname="CaptainHook.svg"
   inkscape:version="1.3 (0e150ed, 2023-07-21)"
   xmlns:inkscape="http://www.inkscape.org/namespaces/inkscape"
   xmlns:sodipodi="http://sodipodi.sourceforge.net/DTD/sodipodi-0.dtd"
   xmlns="http://www.w3.org/2000/svg"
   xmlns:svg="http://www.w3.org/2000/svg"
   xmlns:rdf="http://www.w3.org/1999/02/22-rdf-syntax-ns#"
   xmlns:cc="http://creativecommons.org/ns#"
   xmlns:dc="http://purl.org/dc/elements/1.1/"><metadata
     id="metadata8"><rdf:RDF><cc:Work
         rdf:about=""><dc:format>image/svg+xml</dc:format><dc:type
           rdf:resource="http://purl.org/dc/dcmitype/StillImage" /></cc:Work></rdf:RDF></metadata><defs
     id="defs6"><inkscape:path-effect
       effect="simplify"
       id="path-effect4"
       is_visible="true"
       lpeversion="1.3"
       threshold="74.359"
       steps="1"
       smooth_angles="360"
       helper_size="0"
       simplify_individual_paths="false"
       simplify_just_coalesce="false" /><clipPath
       clipPathUnits="userSpaceOnUse"
       id="clipPath38"><path
         d="m 8.50412,14.17339 c 7.0867,10.48819 12.18892,28.34681 21.2601,32.59864 7.65375,3.40192 20.12599,-8.78741 14.45671,-9.07073 C 26.079,57.54398 24.37827,17.00824 14.17339,10.48817 Z"
         id="path36"
         inkscape:connector-curvature="0" /></clipPath></defs><sodipodi:namedview
     pagecolor="#ffffff"
     bordercolor="#666666"
     borderopacity="1"
     objecttolerance="10"
     gridtolerance="10"
     guidetolerance="10"
     inkscape:pageopacity="0"
     inkscape:pageshadow="2"
     inkscape:window-width="896"
     inkscape:window-height="847"
     id="namedview4"
     showgrid="false"
     inkscape:snap-global="false"
     inkscape:zoom="3.938263"
     inkscape:cx="28.946772"
     inkscape:cy="49.514215"
     inkscape:current-layer="g10"
     fit-margin-top="0"
     fit-margin-left="0"
     fit-margin-right="0"
     fit-margin-bottom="0"
     inkscape:showpageshadow="2"
     inkscape:pagecheckerboard="0"
     inkscape:deskcolor="#d1d1d1"
     inkscape:window-x="0"
     inkscape:window-y="25"
     inkscape:window-maximized="0"><inkscape:page
       x="0"
       y="0"
       width="111.66729"
       height="99.705025"
       id="page5"
       margin="2mm"
       bleed="0" /></sodipodi:namedview><g
     id="g10"
     inkscape:groupmode="layer"
     inkscape:label="napoleon"
     transform="matrix(1.3333333,0,0,-1.3333333,-54.743436,143.36347)"><g
       id="g28"
       transform="translate(73.485126,35.294975)"><path
         d="m 8.50412,14.17339 c 7.0867,10.48819 12.18892,28.34681 21.2601,32.59864 7.65375,3.40192 20.12599,-8.78741 14.45671,-9.07073 C 26.079,57.54398 24.37827,17.00824 14.17339,10.48817 Z"
         style="fill:#62523f;fill-opacity:1;fill-rule:nonzero;stroke:none"
         id="path30"
         inkscape:connector-curvature="0" /></g><path
       d="m 90.351506,61.373975 c 0,-18.709 -6.80339,-20.9768 -16.86638,-20.9768 -10.06299,0 -16.86638,2.2678 -16.86638,20.9768 -0.28329,18.709 7.37003,33.73277 16.86638,33.73277 9.49635,0 17.14967,-15.02377 16.86638,-33.73277 z"
       style="fill:#9c8364;fill-opacity:1;fill-rule:nonzero;stroke:none"
       id="path1424"
       inkscape:connector-curvature="0" /><path
       sodipodi:nodetypes="ccccccc"
       inkscape:connector-curvature="0"
       id="path1428"
       style="fill:#f5f5f5;fill-opacity:1;fill-rule:nonzero;stroke:none;stroke-width:0.1875"
       d="m 86.661135,49.997649 -5.867557,-0.514606 -7.720136,4.837293 -7.92598,-4.837293 -5.044187,0.102921 c -6.264114,14.30633 0.591939,43.336428 13.381851,45.520781 15.249751,-9.073319 21.184765,-29.790114 13.176009,-45.109096 z" /><g
       id="g20"
       transform="translate(73.485126,35.294975)"
       style="fill:#343434;fill-opacity:1"><path
         d="m 13.7482,5.66927 c 0,1.40895 -2.9189,2.5511 -6.51964,2.5511 -3.60074,0 -6.51964,-1.14215 -6.51964,-2.5511 0,-1.40896 2.9189,-2.55111 6.51964,-2.55111 3.60074,0 6.51964,1.14215 6.51964,2.55111 z"
         style="fill:#343434;fill-opacity:1;fill-rule:nonzero;stroke:none"
         id="path22"
         inkscape:connector-curvature="0" /></g><g
       id="g24"
       transform="translate(73.485126,35.294975)"
       style="fill:#343434;fill-opacity:1"><path
         d="m -0.70892,5.66927 c 0,1.40895 -2.9189,2.5511 -6.51964,2.5511 -3.60074,0 -6.51964,-1.14215 -6.51964,-2.5511 0,-1.40896 2.9189,-2.55111 6.51964,-2.55111 3.60074,0 6.51964,1.14215 6.51964,2.55111 z"
         style="fill:#343434;fill-opacity:1;fill-rule:nonzero;stroke:none"
         id="path26"
         inkscape:connector-curvature="0" /></g><g
       clip-path="url(#clipPath38)"
       id="g34"
       transform="translate(73.485126,35.294975)"><g
         id="g40"><path
           inkscape:connector-curvature="0"
           id="path42"
           style="fill:#cab7a0;fill-opacity:1;fill-rule:nonzero;stroke:none"
           d="m 17.05927,34.20612 1.41741,2.45506 9.81951,-5.66928 -1.41741,-2.45507 z" /></g><g
         id="g44"><path
           inkscape:connector-curvature="0"
           id="path46"
           style="fill:#cab7a0;fill-opacity:1;fill-rule:nonzero;stroke:none"
           d="m 19.89346,39.87546 1.41742,2.45504 9.81949,-5.66926 -1.41742,-2.45506 z" /></g><g
         id="g48"><path
           inkscape:connector-curvature="0"
           id="path50"
           style="fill:#cab7a0;fill-opacity:1;fill-rule:nonzero;stroke:none"
           d="m 23.6168,45.95197 2.17162,1.82222 7.28832,-8.68575 -2.17162,-1.8222 z" /></g><g
         id="g52"><path
           inkscape:connector-curvature="0"
           id="path54"
           style="fill:#cab7a0;fill-opacity:1;fill-rule:nonzero;stroke:none"
           d="m 31.63574,50.69211 2.79181,0.49228 1.96889,-11.1664 -2.79183,-0.49228 z" /></g><g
         id="g56"><path
           inkscape:connector-curvature="0"
           id="path58"
           style="fill:#cab7a0;fill-opacity:1;fill-rule:nonzero;stroke:none"
           d="m 45.07855,47.77419 2.1716,-1.82222 -7.28833,-8.68573 -2.1716,1.8222 z" /></g><g
         id="g60"><path
           inkscape:connector-curvature="0"
           id="path62"
           style="fill:#cab7a0;fill-opacity:1;fill-rule:nonzero;stroke:none"
           d="m 9.9726,20.03271 1.41741,2.45507 9.81949,-5.66928 -1.41742,-2.45505 z" /></g></g><ellipse
       ry="1.1321323"
       rx="0.87482947"
       transform="scale(1,-1)"
       cy="-61.604919"
       cx="75.595558"
       id="ellipse1478"
       style="opacity:1;fill:#f4a460;fill-opacity:1;fill-rule:evenodd;stroke:none;stroke-width:0.075;stroke-linecap:round;stroke-linejoin:round;stroke-miterlimit:4;stroke-dasharray:none;stroke-dashoffset:0;stroke-opacity:1" /><ellipse
       style="opacity:1;fill:#f4a460;fill-opacity:1;fill-rule:evenodd;stroke:none;stroke-width:0.075;stroke-linecap:round;stroke-linejoin:round;stroke-miterlimit:4;stroke-dasharray:none;stroke-dashoffset:0;stroke-opacity:1"
       id="ellipse1480"
       cx="75.595558"
       cy="-57.104919"
       transform="scale(1,-1)"
       rx="0.87482947"
       ry="1.1321323" /><path
       sodipodi:nodetypes="cccccsc"
       inkscape:connector-curvature="0"
       id="path74"
       style="fill:#9e0000;fill-opacity:1;fill-rule:nonzero;stroke:none"
       d="m 90.351506,61.373975 c 0,-4.67725 -0.425212,-8.326925 -1.220264,-11.170484 C 74.690018,29.038959 80.187454,74.943478 73.596698,74.903642 66.51392,74.472674 71.973354,31.627962 58.100638,48.372094 c -0.795052,2.843559 -1.481892,8.324631 -1.481892,13.001881 -0.28329,18.709 7.37003,33.73277 16.86638,33.73277 9.49635,0 17.14967,-15.02377 16.86638,-33.73277 z" /><path
       inkscape:transform-center-y="-10.666618"
       inkscape:transform-center-x="7.1746765"
       sodipodi:nodetypes="ccccc"
       inkscape:connector-curvature="0"
       id="path1506"
       style="fill:#720000;fill-opacity:1;fill-rule:nonzero;stroke:none"
       d="m 69.491364,70.280986 -9.519118,12.074159 1.253743,-10.865636 c 4.399948,2.794014 8.265375,-1.208525 8.265375,-1.208525 z" /><path
       d="m 87.658516,86.319295 c 0,-6.23632 -8.50412,-15.59083 -14.17339,-18.14193 -5.66927,2.5511 -14.17339,11.90561 -14.17339,18.14193 4.53559,14.173425 23.81119,14.173425 28.34678,0 z"
       style="fill:#cab7a0;fill-opacity:1;fill-rule:nonzero;stroke:none"
       id="path80"
       inkscape:connector-curvature="0" /><path
       d="M 70.290539,72.077771 67.677071,50.318945 61.764802,68.578453 c 5.076756,-1.180085 8.525737,3.499318 8.525737,3.499318 z"
       style="fill:#720000;fill-opacity:1;fill-rule:nonzero;stroke:none"
       id="path1474"
       inkscape:connector-curvature="0"
       sodipodi:nodetypes="cccc" /><g
       id="g82"
       transform="translate(73.485126,35.294975)"><path
         inkscape:connector-curvature="0"
         id="path84"
         style="fill:#9c8364;fill-opacity:1;fill-rule:nonzero;stroke:none"
         d="m -13.98912,49.44513 c 0,0 8.55516,1.00651 10.10278,-0.31143 1.90187,-15.11762 1.90187,-15.11762 1.90187,-15.11762 -5.3574,3.31366 -11.05523,10.38912 -12.00465,15.42905 z" /></g><path
       sodipodi:nodetypes="cccc"
       inkscape:connector-curvature="0"
       id="path1488"
       style="fill:#720000;fill-opacity:1;fill-rule:nonzero;stroke:none"
       d="m 75.979918,71.816143 3.00591,-20.973943 5.781455,17.736253 c -5.076756,-1.180085 -8.787365,3.23769 -8.787365,3.23769 z" /><path
       d="m 77.222246,70.280986 9.519118,12.074159 -1.253743,-10.865636 c -4.399948,2.794014 -8.265375,-1.208525 -8.265375,-1.208525 z"
       style="fill:#720000;fill-opacity:1;fill-rule:nonzero;stroke:none"
       id="path1504"
       inkscape:connector-curvature="0"
       sodipodi:nodetypes="ccccc"
       inkscape:transform-center-x="-7.1746765"
       inkscape:transform-center-y="-10.666618" /><path
       d="m 87.474246,84.740105 c 0,0 -8.55516,1.00651 -10.10278,-0.31143 -1.90187,-15.11762 -1.90187,-15.11762 -1.90187,-15.11762 5.3574,3.31366 11.05523,10.38912 12.00465,15.42905 z"
       style="fill:#9c8364;fill-opacity:1;fill-rule:nonzero;stroke:none"
       id="path88"
       inkscape:connector-curvature="0" /><g
       id="g90"
       transform="translate(73.485126,35.294975)"><path
         inkscape:connector-curvature="0"
         id="path92"
         style="fill:#42321f;fill-opacity:1;fill-rule:nonzero;stroke:none"
         d="m 2.5511,35.37683 c 0,1.40895 -1.14216,2.5511 -2.5511,2.5511 -1.40894,0 -2.5511,-1.14215 -2.5511,-2.5511 0,-1.40895 1.14216,-2.5511 2.5511,-2.5511 1.40894,0 2.5511,1.14215 2.5511,2.5511 z" /></g><g
       id="g94"
       transform="translate(73.485126,35.294975)"><path
         inkscape:connector-curvature="0"
         id="path96"
         style="fill:#42321f;fill-opacity:1;fill-rule:nonzero;stroke:none"
         d="m 7.93706,45.92168 c 0,0.78282 -0.6346,1.41742 -1.41742,1.41742 -0.78284,0 -1.41742,-0.6346 -1.41742,-1.41742 0,-0.78284 0.63458,-1.41742 1.41742,-1.41742 0.78282,0 1.41742,0.63458 1.41742,1.41742 z" /></g><g
       id="g98"
       transform="translate(73.485126,35.294975)"><path
         inkscape:connector-curvature="0"
         id="path100"
         style="fill:#42321f;fill-opacity:1;fill-rule:nonzero;stroke:none"
         d="m -5.10222,45.92168 c 0,0.78282 -0.63458,1.41742 -1.41742,1.41742 -0.78282,0 -1.41742,-0.6346 -1.41742,-1.41742 0,-0.78284 0.6346,-1.41742 1.41742,-1.41742 0.78284,0 1.41742,0.63458 1.41742,1.41742 z" /></g><path
       id="path1"
       style="fill:#35383b;fill-opacity:1;stroke-width:3.71584;stroke-linejoin:round;paint-order:stroke markers fill"
       d="m 94.221779,91.077529 c 5.151486,-1.487135 -9.460656,1.812516 -20.559836,1.812517 -13.890262,10e-7 -19.633848,-7.763818 -19.633848,-1.812517 7.640128,2.79288 8.997667,10.775781 20.096841,10.775781 11.099175,0 14.2837,-9.097638 20.096843,-10.775781 z"
       sodipodi:nodetypes="sscss" /><path
       style="fill:#35383b;stroke-width:1"
       d="m 87.267453,86.36233 c -2.129845,1.183496 -4.427668,2.011694 -6.798483,2.5218 -2.370815,0.510106 -4.814623,-1.783346 -7.236436,-1.872213 -2.533004,0.009 -5.100134,2.441218 -7.533551,1.66161 -2.264454,-0.456747 -4.364611,-1.395167 -6.448908,-2.345197 -2.142505,0.499265 -9.69122,-1.502555 -12.330436,1.676975 8.931132,2.375333 15.045917,13.354715 26.548031,4.744629 16.352516,8.428816 16.539627,-1.387826 27.56766,-4.647972 0.37031,-1.600897 -8.494297,-1.703922 -9.632339,-1.583348 -1.391099,0.144568 -2.779677,-0.0095 -4.135538,-0.156284 z"
       id="path1385"
       inkscape:connector-curvature="0"
       sodipodi:nodetypes="cscccccccc" /><path
       inkscape:connector-curvature="0"
       id="path66"
       style="fill:#9c8364;fill-opacity:1;fill-rule:nonzero;stroke:none"
       d="m 88.826544,74.054321 c 1.957002,0.559098 5.00767,-4.11291 6.813895,-10.435364 1.806242,-6.322435 1.683983,-11.900881 -0.273027,-12.459968 -1.957006,-0.559079 -5.007667,4.112908 -6.81389,10.435363 -1.806246,6.322435 -1.683996,11.900901 0.273022,12.459969 z" /><path
       style="color:#000000;fill:#808080;-inkscape-stroke:none"
       d="m 47.253952,47.608743 c -0.243928,2.8763 2.115497,4.753009 3.517057,7.011041 0.285059,0.471425 -0.119834,1.355857 0.529533,1.596719 0.326657,0.220945 1.032925,0.173457 0.99833,0.707574 0.01123,-0.241638 0.399644,-0.03517 0.586302,-0.0684 l 3.141439,0.293355 C 56.029613,56.5416 55.762706,55.971018 55.585137,55.39962 55.189435,54.593419 54.49684,54.197127 53.921943,53.625748 53.0326,52.741847 51.951838,52.043663 51.162097,51.069744 50.469293,50.215367 49.443365,49.33731 49.468424,48.237625 c 0.01301,-0.571167 0.424278,-1.19605 0.945772,-1.429384 0.912515,-0.408286 2.076557,-0.02024 2.967673,0.432858 1.084202,0.551271 2.552815,2.607238 2.552815,2.607238 0.91989,0.953633 -0.322514,-2.377557 -1.022488,-3.286634 -0.644716,-0.837311 -1.820371,-1.408425 -2.685918,-1.68421 -1.059289,-0.195735 -2.127305,-0.298621 -3.017207,0.173527 -0.947965,0.502953 -1.78792,1.497698 -1.955119,2.557719 z"
       id="path4"
       sodipodi:nodetypes="asssccsaaaaasacaa" /><path
       d="M 50.992514,60.448382 C 50.680578,59.046127 50.234478,56.21046 50.234478,56.21046 l 6.132455,-1.988357 c 0,0 0.344862,2.628835 1.007267,3.90353 0.551737,5.808125 -0.510308,11.627895 -6.381686,2.322749 z"
       style="fill:#f5f5f5;fill-opacity:1;fill-rule:nonzero;stroke:none"
       id="path1459"
       inkscape:connector-curvature="0"
       sodipodi:nodetypes="ccccc" /><path
       sodipodi:nodetypes="csssccccsssc"
       inkscape:connector-curvature="0"
       id="path1464"
       style="fill:#9e0000;fill-opacity:1;fill-rule:nonzero;stroke:none"
       d="m 59.951469,74.829425 c -0.478138,0.174032 -1.047585,0.02678 -1.667943,-0.388549 -0.620359,-0.415324 -1.291628,-1.098715 -1.973409,-1.996949 -0.681782,-0.898233 -1.374075,-2.01131 -2.036481,-3.286007 -0.662406,-1.274696 -1.294925,-2.711013 -1.857157,-4.255725 -0.562238,-1.544708 -1.312892,-4.453813 -1.312892,-4.453813 l 6.381686,-2.322749 c 0,0 1.294924,2.71101 1.857156,4.255722 0.562238,1.544707 1.000957,3.051559 1.312893,4.453816 0.311937,1.402256 0.497091,2.699917 0.552197,3.826243 0.05511,1.126325 -0.01984,2.081316 -0.228088,2.798231 -0.208254,0.716915 -0.54982,1.195755 -1.027962,1.36978 z" /><path
       sodipodi:nodetypes="ccccc"
       inkscape:connector-curvature="0"
       id="path1466"
       style="fill:#f5f5f5;fill-opacity:1;fill-rule:nonzero;stroke:none"
       d="m 96.355893,60.448382 c 0.311936,-1.402255 0.758036,-4.237922 0.758036,-4.237922 l -6.132455,-1.988357 c 0,0 -0.344862,2.628835 -1.007267,3.90353 -0.03535,6.677378 1.646448,11.878578 6.381686,2.322749 z" /><path
       d="m 87.508011,74.829425 c 0.478138,0.174032 1.047585,0.02678 1.667943,-0.388549 0.620359,-0.415324 1.291628,-1.098715 1.973409,-1.996949 0.681782,-0.898233 1.374075,-2.01131 2.036481,-3.286007 0.662406,-1.274696 1.294925,-2.711013 1.857157,-4.255725 0.562238,-1.544708 1.312892,-4.453813 1.312892,-4.453813 l -6.381686,-2.322749 c 0,0 -1.294924,2.71101 -1.857156,4.255722 -0.562238,1.544707 -1.000957,3.051559 -1.312893,4.453816 -0.311937,1.402256 -0.497091,2.699917 -0.552197,3.826243 -0.05511,1.126325 0.01984,2.081316 0.228088,2.798231 0.208254,0.716915 0.54982,1.195755 1.027962,1.36978 z"
       style="fill:#9e0000;fill-opacity:1;fill-rule:nonzero;stroke:none"
       id="path1468"
       inkscape:connector-curvature="0"
       sodipodi:nodetypes="csssccccsssc" /><ellipse
       style="opacity:1;fill:#f4a460;fill-opacity:1;fill-rule:evenodd;stroke:none;stroke-width:0.075;stroke-linecap:round;stroke-linejoin:round;stroke-miterlimit:4;stroke-dasharray:none;stroke-dashoffset:0;stroke-opacity:1"
       id="path1476"
       cx="75.595558"
       cy="-65.354919"
       transform="scale(1,-1)"
       rx="0.87482947"
       ry="1.1321323" /><ellipse
       ry="1.1321323"
       rx="0.87482947"
       transform="scale(1,-1)"
       cy="-65.354919"
       cx="71.095558"
       id="ellipse1482"
       style="opacity:1;fill:#f4a460;fill-opacity:1;fill-rule:evenodd;stroke:none;stroke-width:0.075;stroke-linecap:round;stroke-linejoin:round;stroke-miterlimit:4;stroke-dasharray:none;stroke-dashoffset:0;stroke-opacity:1" /><ellipse
       style="opacity:1;fill:#f4a460;fill-opacity:1;fill-rule:evenodd;stroke:none;stroke-width:0.075;stroke-linecap:round;stroke-linejoin:round;stroke-miterlimit:4;stroke-dasharray:none;stroke-dashoffset:0;stroke-opacity:1"
       id="ellipse1484"
       cx="71.095558"
       cy="-61.604919"
       transform="scale(1,-1)"
       rx="0.87482947"
       ry="1.1321323" /><ellipse
       ry="1.1321323"
       rx="0.87482947"
       transform="scale(1,-1)"
       cy="-57.104919"
       cx="71.095558"
       id="ellipse1486"
       style="opacity:1;fill:#f4a460;fill-opacity:1;fill-rule:evenodd;stroke:none;stroke-width:0.075;stroke-linecap:round;stroke-linejoin:round;stroke-miterlimit:4;stroke-dasharray:none;stroke-dashoffset:0;stroke-opacity:1" /><path
       style="fill:none;stroke:#ffa500;stroke-width:1.5"
       d="M 46.919639,88.005305 C 55.850771,90.380638 62.09637,102.40653 73.598484,93.796447 89.951,102.22526 90.007297,91.362108 101.03533,88.101962"
       id="path2"
       inkscape:connector-curvature="0"
       sodipodi:nodetypes="ccc" /></g></svg>
