<?xml version="1.0" encoding="UTF-8" standalone="no"?>
<!-- Created with Inkscape (http://www.inkscape.org/) -->

<svg
   version="1.1"
   id="svg1"
   width="964.76508"
   height="314.94916"
   viewBox="0 0 964.7651 314.94916"
   sodipodi:docname="Carriage.svg"
   inkscape:version="1.3 (0e150ed, 2023-07-21)"
   xml:space="preserve"
   xmlns:inkscape="http://www.inkscape.org/namespaces/inkscape"
   xmlns:sodipodi="http://sodipodi.sourceforge.net/DTD/sodipodi-0.dtd"
   xmlns="http://www.w3.org/2000/svg"
   xmlns:svg="http://www.w3.org/2000/svg"><defs
     id="defs1"><clipPath
       clipPathUnits="userSpaceOnUse"
       id="clipPath2"><path
         d="m -33.55394,58.80928 c -0.54578,6.2383 2.80461,11.62714 7.48344,12.0365 4.67885,0.40935 8.91414,-4.3158 9.45993,-10.55409 0.54578,-6.23829 -2.80461,-11.62712 -7.48345,-12.03649 -4.67884,-0.40936 -8.91413,4.3158 -9.45992,10.55408 z"
         transform="translate(-2.5000001e-6)"
         id="path2" /></clipPath><clipPath
       clipPathUnits="userSpaceOnUse"
       id="clipPath13"><path
         d="m -34.55022,59.80556 c -0.54578,6.23829 2.80462,11.62714 7.48345,12.0365 4.67885,0.40934 8.91414,-4.3158 9.45993,-10.5541 0.54577,-6.23828 -2.80461,-11.62712 -7.48346,-12.03648 -4.67883,-0.40936 -8.91413,4.3158 -9.45992,10.55408 z"
         transform="translate(-2.5000001e-6)"
         id="path13" /></clipPath><clipPath
       id="cp0"><path
         d="M 13.89008,55.4168 C 7.56854,56.63569 -3.54333,69.25024 8.19225,80.47544 19.956,91.70064 81.15709,84.18879 51.53429,47.64971 24.94531,61.05796 35.15019,48.81194 14.54192,68.03133 Z"
         id="path1-5" /></clipPath></defs><sodipodi:namedview
     id="namedview1"
     pagecolor="#ffffff"
     bordercolor="#666666"
     borderopacity="1.0"
     inkscape:showpageshadow="2"
     inkscape:pageopacity="0.0"
     inkscape:pagecheckerboard="0"
     inkscape:deskcolor="#d1d1d1"
     inkscape:zoom="0.67486398"
     inkscape:cx="325.99162"
     inkscape:cy="180.77717"
     inkscape:window-width="1440"
     inkscape:window-height="847"
     inkscape:window-x="0"
     inkscape:window-y="25"
     inkscape:window-maximized="0"
     inkscape:current-layer="g1"><inkscape:page
       x="0"
       y="0"
       width="964.76508"
       height="314.94916"
       id="page178"
       margin="0"
       bleed="0" /></sodipodi:namedview><g
     id="g1"
     inkscape:groupmode="layer"
     inkscape:label="1"
     transform="translate(333.24531,139.13727)"><g
       id="g178"
       transform="rotate(-6.0386008,145.04978,8.6555938)"><g
         id="g131"
         transform="matrix(1.7757513,0,0,1.7757513,-71.35936,-99.0652)"><path
           id="path121"
           d="m -21.96211,56.4086 c -0.54578,6.2383 2.80461,11.62714 7.48344,12.03648 4.67885,0.40937 8.91414,-4.31579 9.45993,-10.55408 0.54578,-6.23827 -2.80461,-11.62711 -7.48346,-12.03648 -4.67883,-0.40936 -8.91412,4.3158 -9.45991,10.55408 z"
           style="fill:#e2dbd5;fill-opacity:1;fill-rule:nonzero;stroke:none"
           transform="matrix(1.3333333,0,0,-1.3333333,216.58267,95.788)"
           clip-path="url(#clipPath2)" /><path
           id="path122"
           d="m 197.19344,52.511734 c 9.29784,1.625187 24.11367,18.444587 8.46623,33.41152 -15.685,14.966936 -97.28645,4.951133 -57.78939,-43.767639 33.25987,17.877666 21.84547,1.512146 49.32316,10.356119 z"
           style="fill:#e2dbd5;fill-opacity:1;fill-rule:nonzero;stroke:none;stroke-width:1.33333" /><path
           id="path123"
           d="m 163.6689,39.094401 c 0,-13.046413 8.46073,-23.622332 18.89786,-23.622332 10.43714,0 18.89784,10.575919 18.89784,23.622332 0,13.046427 -8.4607,23.622333 -18.89784,23.622333 -10.43713,0 -18.89786,-10.575906 -18.89786,-23.622333 z"
           style="fill:#e2dbd5;fill-opacity:1;fill-rule:nonzero;stroke:none;stroke-width:1.33333" /><path
           id="path124"
           d="m 201.23739,40.152681 c -8.95756,-2.192106 -5.10223,6.387707 -19.04896,3.855347 31.25751,19.653386 24.22731,0.03751 19.04896,-3.855347 z"
           style="fill:#cbc5c0;fill-opacity:1;fill-rule:nonzero;stroke:none;stroke-width:1.33333" /><path
           id="path125"
           d="m 182.39391,37.139908 c -0.89241,-2.451906 -0.19599,-4.956333 1.55556,-5.593826 1.75153,-0.637494 3.89485,0.833333 4.78727,3.28524 0.89242,2.451919 0.19598,4.956359 -1.55554,5.593839 -1.75153,0.637507 -3.89485,-0.833333 -4.78729,-3.285253 z"
           style="fill:#fffdd9;fill-opacity:1;fill-rule:nonzero;stroke:none;stroke-width:1.33333" /><path
           id="path126"
           d="m 183.36096,37.189961 c -0.50972,-1.400453 -0.35516,-2.742359 0.3452,-2.997253 0.70038,-0.25492 1.68136,0.673694 2.19107,2.07416 0.50971,1.400427 0.35516,2.742347 -0.34523,2.997253 -0.70034,0.254894 -1.68133,-0.67372 -2.19104,-2.07416 z"
           style="fill:#000000;fill-opacity:1;fill-rule:nonzero;stroke:none;stroke-width:1.33333" /><path
           id="path127"
           d="m 193.42878,34.229495 c -0.81606,-2.242107 -0.2278,-4.514573 1.31393,-5.075707 1.54172,-0.561133 3.45308,0.801507 4.26913,3.043614 0.81607,2.242106 0.22782,4.514573 -1.31392,5.075706 -1.5417,0.561133 -3.45306,-0.801507 -4.26914,-3.043613 z"
           style="fill:#fffdd9;fill-opacity:1;fill-rule:nonzero;stroke:none;stroke-width:1.33333" /><path
           id="path128"
           d="m 194.26868,34.326375 c -0.45904,-1.261253 -0.37652,-2.4492 0.18438,-2.653347 0.56089,-0.20412 1.3877,0.652814 1.84677,1.91408 0.45907,1.261254 0.37653,2.4492 -0.18436,2.65332 -0.56089,0.204147 -1.38772,-0.6528 -1.84679,-1.914053 z"
           style="fill:#000000;fill-opacity:1;fill-rule:nonzero;stroke:none;stroke-width:1.33333" /><path
           id="path129"
           d="m 187.73703,28.001242 c -6.01343,-19.4607598 -23.57678,-2.437774 -23.76596,7.865266 -1.18284,-21.211079 26.86524,-37.6215589 27.19396,-8.738413 0,0 -3.364,0.907187 -3.428,0.873147 z"
           style="fill:#cbc5c0;fill-opacity:1;fill-rule:nonzero;stroke:none;stroke-width:1.33333" /><path
           id="path130"
           d="m 149.39287,44.563415 c -12.40462,0.69552 -15.79515,7.366413 -21.41929,13.542479 -6.96963,7.649573 -25.00531,4.081414 -17.96415,3.654667 11.33134,-0.684 9.48698,-9.39244 14.21492,-15.681546 4.22964,-5.6276 16.98145,-10.556227 25.16852,-1.5156 z"
           style="fill:#cbc5c0;fill-opacity:1;fill-rule:nonzero;stroke:none;stroke-width:1.33333" /><path
           id="path131"
           d="m -44.83632,53.78352 c -0.54578,6.23828 2.80462,11.62714 7.48346,12.03648 4.67883,0.40937 8.91412,-4.31579 9.45992,-10.55407 0.54577,-6.23828 -2.80462,-11.62712 -7.48345,-12.03648 -4.67883,-0.40937 -8.91414,4.31579 -9.45993,10.55407 z"
           style="fill:#e2dbd5;fill-opacity:1;fill-rule:nonzero;stroke:none"
           transform="matrix(1.3333333,0,0,-1.3333333,216.58267,95.788)"
           clip-path="url(#clipPath13)" /></g><path
         d="m -107.35874,-14.205362 c 13.18335,2.304342 34.190621,26.152467 12.004211,47.373991 -22.239661,21.221524 -137.941871,7.020182 -81.939221,-62.05787 47.15896,25.348634 30.97456,2.144063 69.93501,14.683879 z"
         fill="#ffdab9"
         id="path3-2"
         style="stroke-width:1.89053" /><path
         d="m -154.89299,-33.229717 c 0,-18.49843 11.99642,-33.49396 26.79517,-33.49396 14.79875,0 26.79513,14.99553 26.79513,33.49396 0,18.498449 -11.99638,33.493963 -26.79513,33.493963 -14.79875,0 -26.79517,-14.995514 -26.79517,-33.493963 z"
         fill="#ffdab9"
         id="path4-9"
         style="stroke-width:1.89053" /><path
         d="m -101.62485,-31.729188 c -12.70087,-3.108175 -7.23442,9.05709 -27.00941,5.466472 44.319831,27.866418 34.351753,0.05318 27.00941,-5.466472 z"
         fill="#df8020"
         id="path5-8"
         style="stroke-width:1.89053" /><path
         d="m -128.34291,-36.000981 c -1.26535,-3.476544 -0.27789,-7.027555 2.20562,-7.931453 2.48349,-0.903898 5.52249,1.181578 6.78784,4.658122 1.26536,3.476562 0.27789,7.027592 -2.20558,7.931471 -2.48349,0.903917 -5.52249,-1.181578 -6.78788,-4.65814 z"
         fill="#ffffd9"
         id="path6-2"
         style="stroke-width:1.89053" /><path
         d="m -126.97173,-35.930011 c -0.72273,-1.985694 -0.50358,-3.888376 0.48946,-4.249787 0.99305,-0.36145 2.38399,0.955225 3.1067,2.940939 0.72271,1.985656 0.50358,3.888356 -0.4895,4.249787 -0.99301,0.361411 -2.38395,-0.955264 -3.10666,-2.940939 z"
         id="path7-0"
         style="stroke-width:1.89053" /><path
         d="m -112.69664,-40.127639 c -1.15707,-3.179069 -0.32299,-6.401186 1.86302,-7.196813 2.186,-0.795628 4.8961,1.136451 6.05318,4.31552 1.15709,3.17907 0.32301,6.401187 -1.863,7.196814 -2.18598,0.795628 -4.89608,-1.136451 -6.0532,-4.315521 z"
         fill="#ffffd9"
         id="path8-7"
         style="stroke-width:1.89053" /><path
         d="m -111.50574,-39.990273 c -0.65087,-1.788324 -0.53386,-3.472706 0.26142,-3.762164 0.79529,-0.289421 1.96762,0.92562 2.61853,2.713962 0.65091,1.788324 0.53389,3.472706 -0.2614,3.762126 -0.79529,0.289459 -1.96764,-0.925601 -2.61855,-2.713924 z"
         id="path9-4"
         style="stroke-width:1.89053" /><path
         d="m -106.12642,-14.205362 c 11.95103,2.304342 32.958301,26.152467 10.771891,47.373991 -22.239661,21.221524 -137.941871,7.020182 -81.939221,-62.05787 47.15896,23.740988 30.97456,7.502625 65.80881,22.454694 z"
         fill="#e7b700"
         id="path10-8"
         style="stroke-width:1.89053" /><path
         d="m -154.60928,-28.808289 c -3.21038,-1.838233 -4.02975,-12.813753 -2.12196,-20.455351 9.72597,-37.73305 64.329484,-25.284017 54.61903,11.173382 -1.03932,-15.015879 -17.52383,-27.288299 -28.6334,-16.864729 -14.72151,13.815445 -20.48239,28.081442 -23.86367,26.146698 z"
         fill="#d9d9d9"
         id="path11-5"
         style="stroke-width:1.89053" /><path
         d="m -123.19811,-46.638154 -6.94815,4.011543 c -0.90084,0.520046 -2.05273,0.211399 -2.57278,-0.689474 l 0.27568,0.477811 c -0.52005,-0.900873 -0.21138,-2.052808 0.68945,-2.572891 l 6.94816,-4.011525 c 0.90083,-0.520083 2.05273,-0.211417 2.57277,0.689475 l -0.27565,-0.477811 c 0.52002,0.900854 0.21136,2.052808 -0.68948,2.572872 z"
         fill="#d9d9d9"
         id="path12-8"
         style="stroke-width:1.89053" /><path
         d="m -106.81949,-48.473665 -5.78973,-1.020846 c -1.0244,-0.18062 -1.70845,-1.157526 -1.5279,-2.181916 l -0.0957,0.54325 c 0.18054,-1.02442 1.15747,-1.70843 2.18185,-1.52783 l 5.78974,1.02084 c 1.02438,0.18064 1.70844,1.15752 1.52788,2.181954 l 0.0956,-0.543261 c -0.18055,1.0244 -1.15744,1.708449 -2.18182,1.527809 z"
         fill="#d9d9d9"
         id="path13-3"
         style="stroke-width:1.89053" /><path
         d="m -106.11504,-14.387098 c 11.950237,2.304361 32.957508,26.157364 10.771079,47.378925 -22.239669,21.222375 -137.951699,7.020995 -81.944969,-62.062805 25.13438,12.67393 32.87822,13.225888 39.21231,15.145055 20.21987,7.679294 32.86189,25.144231 31.96158,-0.461175 z"
         fill="#cc0000"
         id="path14-0"
         style="stroke-width:1.89053" /><path
         d="M -92.819694,30.055388 C -110.2789,23.265812 -126.15255,9.2999353 -141.78006,-15.174559 c -1.59131,-0.09159 -13.07053,-4.212922 -15.42801,-4.261168 12.10068,18.419236 30.053,53.027777 53.74572,57.476164 2.90457,-2.058177 7.030789,-3.730422 10.642656,-7.985049 z"
         fill="#002b7f"
         id="path15-6"
         style="stroke-width:1.89053" /><path
         d="m -143.95038,-94.60279 c 3.0959,-0.69966 6.23209,-1.86999 9.45198,-1.2384 2.91296,0.6614 4.83558,-1.43406 7.38017,-2.34439 3.2847,-1.34539 6.99826,0.53555 8.44398,3.64097 1.77722,2.2622 0.84427,5.56306 2.3963,7.46163 -0.24418,2.060963 0.3336,4.122803 0.49044,6.220683 -0.27163,2.49317 2.30254,6.05683 -0.49525,7.56749 -4.39957,3.44785 -10.28702,3.66739 -15.32287,5.72512 -6.43191,2.13604 -12.70919,4.69094 -18.86905,7.51043 -2.28966,0.9418 -4.8447,1.50187 -7.29006,1.23385 -1.34923,-1.02551 -1.79613,-5.69216 -3.98802,-3.95624 0.64283,-1.56451 -1.01143,-3.16506 -1.60173,-4.57651 -0.4798,-1.17871 -2.33682,-1.8261 -1.53963,-3.37245 -2.19189,-1.66385 -2.89091,-4.73288 -3.23062,-7.36972 -0.49468,-3.67528 2.59,-6.72046 6.03734,-7.27263 2.68845,0.0646 4.71188,-1.489543 6.42712,-3.440023 2.09657,-1.95656 4.84424,-2.95901 7.37201,-4.21545 1.65735,-0.1745 2.85609,-0.89123 4.33789,-1.57436 z"
         fill="#cc0000"
         id="path16-2"
         style="stroke-width:1.89053" /><path
         d="m -153.87496,-54.278407 c -0.49349,0.44452 -2.09637,2.18376 -1.84886,1.7638 1.47665,-1.54923 -0.78325,0.0349 0.48766,-1.20527 -1.88323,0.77041 -0.54948,0.22416 0.56277,-0.23149 0.26604,-0.10912 0.53232,-0.21813 0.79843,-0.32704 z"
         id="path17-2"
         style="stroke-width:1.89053" /><path
         d="m -153.93366,-54.422127 c 0.11229,0.84123 -1.36485,1.52085 -1.88488,2.29763 0.0291,-0.9301 0.29143,-1.0661 -0.67938,-1.24725 0.85482,-0.35005 1.70949,-0.70035 2.56426,-1.05038 z m -0.60089,0.58162 c -0.83102,0.0877 -0.55008,0.6904 -0.0518,0.0515 z"
         id="path18-5"
         style="stroke-width:1.89053" /><path
         d="m -154.59367,-54.556747 c 0.10039,-1.15455 1.15079,0.48654 0,0 z"
         id="path19-2"
         style="stroke-width:1.89053" /><path
         d="m -154.50133,-55.048567 c 1.81572,0.20805 -0.91611,1.45574 0,0 z m 0.10814,0.22281 c -0.39855,0.61694 0.71214,0.0242 0,0 z"
         id="path20-2"
         style="stroke-width:1.89053" /><path
         d="m -153.83275,-54.397967 c 0.087,-1.31091 1.25696,0.64669 0,0 z"
         id="path21-7"
         style="stroke-width:1.89053" /><path
         d="m -153.74049,-54.890047 c 1.81543,0.20862 -0.91568,1.45585 0,0 z m 0.10833,0.22321 c -0.39847,0.61671 0.7122,0.0244 0,0 z"
         id="path22-1"
         style="stroke-width:1.89053" /><path
         d="m -153.89653,-53.570857 c 0.087,-1.31091 1.25695,0.64671 0,0 z"
         id="path23-5"
         style="stroke-width:1.89053" /><path
         d="m -153.80431,-54.062927 c 1.81585,0.20892 -0.91621,1.45544 0,0 z m 0.10832,0.2232 c -0.39918,0.61585 0.71269,0.0252 0,0 z"
         id="path24-2"
         style="stroke-width:1.89053" /><path
         d="m -145.57062,-60.013927 c -0.4936,0.44475 -2.09648,2.18403 -1.84907,1.76388 1.47688,-1.54932 -0.78311,0.0351 0.48795,-1.20511 -1.88325,0.77018 -0.54954,0.22391 0.56275,-0.23174 0.26605,-0.1089 0.53218,-0.21783 0.79837,-0.32703 z"
         id="path25-1"
         style="stroke-width:1.89053" /><path
         d="m -145.62961,-60.157277 c 0.11325,0.84062 -1.3649,1.52062 -1.88496,2.29742 -0.20337,-0.54065 0.58562,-1.48119 -0.5614,-0.96003 -0.10984,-0.70783 1.85285,-0.89089 2.44636,-1.33739 z m -0.60045,0.58148 c -0.83115,0.0875 -0.55014,0.69037 -0.0516,0.0512 z"
         id="path26-1"
         style="stroke-width:1.89053" /><path
         d="m -146.28929,-60.292287 c 0.10039,-1.15431 1.15086,0.48674 0,0 z"
         id="path27-0"
         style="stroke-width:1.89053" /><path
         d="m -146.19691,-60.783937 c 1.8159,0.20853 -0.91653,1.45527 0,0 z m 0.10832,0.22284 c -0.39922,0.61654 0.7125,0.0245 0,0 z"
         id="path28-1"
         style="stroke-width:1.89053" /><path
         d="m -145.52833,-60.133307 c 0.10039,-1.15455 1.15084,0.48654 0,0 z"
         id="path29-8"
         style="stroke-width:1.89053" /><path
         d="m -145.43609,-60.625377 c 1.81549,0.20866 -0.91564,1.45586 0,0 z m 0.10833,0.22325 c -0.39843,0.61671 0.71223,0.0244 0,0 z"
         id="path30-7"
         style="stroke-width:1.89053" /><path
         d="m -145.59217,-59.306397 c 0.087,-1.31087 1.25704,0.64692 0,0 z"
         id="path31-6"
         style="stroke-width:1.89053" /><path
         d="m -145.50035,-59.798267 c 1.81596,0.20795 -0.91543,1.45689 0,0 z m 0.10852,0.2231 c -0.3983,0.61644 0.71252,0.0246 0,0 z"
         id="path32-0"
         style="stroke-width:1.89053" /><path
         d="m -135.3373,-64.878997 c -0.65014,0.13627 -3.00025,0.40449 -2.51499,0.45246 2.12223,-0.27852 -0.49027,0.6116 1.26083,0.317 -1.73297,1.0661 -0.50496,0.31144 0.5191,-0.31774 0.24503,-0.15052 0.48997,-0.3012 0.73506,-0.45172 z"
         id="path33-0"
         style="stroke-width:1.89053" /><path
         d="m -138.22351,-64.580297 c 0.93178,0.0425 2.35807,-0.75993 2.96746,-0.16667 -0.68242,0.26732 -2.34673,1.80024 -2.37544,1.09549 0.82763,-0.47173 -0.0979,-0.44749 -0.59202,-0.92882 z m 1.55756,0.0681 c -0.27236,0.67043 1.27764,-0.47553 0,0 z"
         id="path34-9"
         style="stroke-width:1.89053" /><path
         d="m -135.53658,-64.134607 c 1.10975,0.70328 0.21934,-1.39645 0,0 z"
         id="path35-5"
         style="stroke-width:1.89053" /><path
         d="m -135.45225,-64.634687 c 2.02362,0.1823 -1.02967,1.61791 0,0 z m 0.11627,0.21917 c -0.40529,0.64359 0.69312,0.0121 0,0 z"
         id="path36-6"
         style="stroke-width:1.89053" /><path
         d="m -135.21586,-64.842737 c 1.41028,0.6226 -0.0416,-1.39387 0,0 z"
         id="path37-2"
         style="stroke-width:1.89053" /><path
         d="m -135.13167,-65.342577 c 2.02296,0.18057 -1.02913,1.6189 0,0 z m 0.11608,0.21902 c -0.40416,0.64412 0.69325,0.011 0,0 z"
         id="path38-8"
         style="stroke-width:1.89053" /><path
         d="m -135.9214,-65.279077 c 1.41141,0.62497 -0.0425,-1.39617 0,0 z"
         id="path39"
         style="stroke-width:1.89053" /><path
         d="m -135.83721,-65.779547 c 2.02376,0.18205 -1.02862,1.62078 0,0 z m 0.11607,0.21901 c -0.41172,0.63019 0.69946,0.003 0,0 z"
         id="path40"
         style="stroke-width:1.89053" /><path
         d="m -123.7205,-67.632547 c -0.66378,-0.0234 -3.00962,-0.32555 -2.55009,-0.16287 2.12701,0.23769 -0.62253,0.47641 1.14821,0.60969 -1.93784,0.62044 -0.56496,0.18164 0.57999,-0.18419 0.27389,-0.0876 0.54797,-0.17504 0.82189,-0.26263 z"
         id="path41"
         style="stroke-width:1.89053" /><path
         d="m -126.59385,-68.033437 c 0.89435,0.26433 2.47082,-0.17262 2.92063,0.54854 -0.83945,0.0431 -2.23263,1.16089 -2.73407,0.54787 1.10274,-0.25444 0.24773,-0.50575 -0.1866,-1.09641 z m 1.4955,0.43879 c -0.43044,0.58459 1.35766,-0.15345 0,0 z"
         id="path42"
         style="stroke-width:1.89053" /><path
         d="m -124.09219,-66.957407 c 1.22037,0.94273 0.29337,-1.3639 0,0 z"
         id="path43"
         style="stroke-width:1.89053" /><path
         d="m -123.89061,-67.422687 c 1.92034,0.6597 -1.38634,1.32574 0,0 z m 0.0603,0.24021 c -0.54729,0.52912 0.67059,0.17752 0,0 z"
         id="path44"
         style="stroke-width:1.89053" /><path
         d="m -123.61145,-67.568277 c 0.90928,0.94856 0.54736,-1.30332 0,0 z"
         id="path45"
         style="stroke-width:1.89053" /><path
         d="m -123.40983,-68.033567 c 1.92045,0.65991 -1.38626,1.32526 0,0 z m 0.0605,0.24062 c -0.54717,0.5288 0.67034,0.17694 0,0 z"
         id="path46"
         style="stroke-width:1.89053" /><path
         d="m -124.19181,-68.160707 c 1.22039,0.94267 0.29341,-1.36392 0,0 z"
         id="path47"
         style="stroke-width:1.89053" /><path
         d="m -123.99005,-68.626307 c 1.91989,0.66104 -1.38679,1.32524 0,0 z m 0.0603,0.24048 c -0.54719,0.52925 0.66979,0.1778 0,0 z"
         id="path48"
         style="stroke-width:1.89053" /><path
         d="m -113.68124,-68.339647 c -0.66392,-0.0233 -3.00979,-0.32549 -2.55017,-0.16258 2.12724,0.23764 -0.62253,0.47641 1.1484,0.6096 -1.93786,0.62018 -0.56502,0.18143 0.57994,-0.18437 0.27393,-0.0874 0.54778,-0.175 0.82183,-0.26265 z"
         id="path49"
         style="stroke-width:1.89053" /><path
         d="m -116.55477,-68.740417 c 0.89432,0.26403 2.47083,-0.17264 2.92066,0.54844 -0.72625,0.0961 -2.70914,1.18663 -2.56849,0.49498 0.91708,-0.25965 0.0113,-0.45796 -0.35217,-1.04342 z m 1.4955,0.43879 c -0.4271,0.58612 1.35663,-0.15514 0,0 z"
         id="path50"
         style="stroke-width:1.89053" /><path
         d="m -114.0529,-67.664497 c 1.22037,0.94271 0.29345,-1.3637 0,0 z"
         id="path51"
         style="stroke-width:1.89053" /><path
         d="m -113.8513,-68.129777 c 1.92021,0.65926 -1.38624,1.32596 0,0 z m 0.0601,0.2403 c -0.547,0.52922 0.67078,0.17743 0,0 z"
         id="path52"
         style="stroke-width:1.89053" /><path
         d="m -113.57206,-68.275197 c 0.90921,0.94838 0.54728,-1.30331 0,0 z"
         id="path53"
         style="stroke-width:1.89053" /><path
         d="m -113.3705,-68.740647 c 1.92102,0.65966 -1.38668,1.32609 0,0 z m 0.0603,0.24071 c -0.54702,0.52849 0.6704,0.17704 0,0 z"
         id="path54"
         style="stroke-width:1.89053" /><path
         d="m -114.15249,-68.867857 c 1.22039,0.94277 0.29322,-1.36358 0,0 z"
         id="path55"
         style="stroke-width:1.89053" /><path
         d="m -113.951,-69.333307 c 1.92079,0.66025 -1.38664,1.32613 0,0 z m 0.0605,0.24082 c -0.54752,0.52899 0.67011,0.1768 0,0 z"
         id="path56"
         style="stroke-width:1.89053" /><path
         d="m -118.07278,-70.285467 c 2.5047,0.28261 6.7885,-1.51442 7.38108,2.0233 0.35984,3.25652 -4.81095,1.13643 -6.97246,2.00927 -10.60511,0.73925 -21.1453,3.76743 -30.04852,9.68536 -3.18438,2.02203 -6.16092,4.34642 -9.09177,6.714885 -3.66136,-2.367565 -0.14897,-5.296435 2.254,-6.811825 4.54203,-3.30388 9.24176,-6.48687 14.54712,-8.45248 6.76767,-2.83963 13.97371,-4.52603 21.28896,-5.06775 z"
         fill="#fafafa"
         id="path57"
         style="stroke-width:1.89053" /><path
         d="m -130.20266,-91.50423 c 2.00381,2.22959 3.39783,5.47997 2.75087,8.544743 0.0773,-3.240213 3.78364,-3.783423 4.17798,-0.34177 0.3489,0.95184 1.34583,3.47947 -0.12023,1.26759 -2.97369,-2.32803 -4.6513,2.71051 -2.06413,4.3215 0.64493,2.40061 6.96959,0.78438 2.75591,1.80861 -3.09492,0.82128 -6.18928,1.64483 -9.28471,2.46475 1.66816,-1.90935 5.43654,-4.6239 2.98291,-7.23578 -1.98016,-2.10824 -3.55988,1.68998 -3.5465,1.92219 -1.01426,-2.32343 -0.19602,-7.707843 3.0328,-4.38492 1.11235,1.24283 -1.62141,-2.60654 -1.0613,-3.778213 -0.0113,-1.4793 -0.34848,-3.26539 0.37642,-4.5887 z m 2.74384,8.579243 c -0.028,1.56208 0.19272,3.55598 0.0282,0.83005 l -0.017,-0.39835 z m -1.50061,0.3979 c 0.57807,1.26196 1.45773,3.24314 0.43231,0.85404 -0.51377,-1.27147 0.12685,0.42348 -0.43231,-0.85404 z"
         fill="#e7b700"
         id="path58"
         style="stroke-width:1.89053" /><path
         d="m -157.23564,-81.360577 c 2.42296,1.7645 4.46176,4.65411 4.46599,7.78607 -0.59705,-3.1866 2.91529,-4.48605 4.01686,-1.20177 0.53908,0.85735 2.03891,3.12241 0.145,1.26484 -3.45728,-1.79251 -4.2029,4.2426 -0.46564,4.1845 1.52621,0.35153 6.00764,0.52971 2.41791,1.66779 -2.85696,1.44581 -5.71184,2.89539 -8.56892,4.34149 2.05684,-1.65778 4.08399,-6.39852 1.06372,-7.83594 -2.24365,-1.46792 -2.60404,3.00276 -2.72103,2.75514 -1.47433,-2.06139 -1.79335,-7.49864 2.05483,-4.91956 1.34626,0.98536 -2.12644,-2.21396 -1.82339,-3.47555 -0.31837,-1.44426 -1.02249,-3.12341 -0.58531,-4.56701 z m 4.46764,7.82193 c 0.29535,1.53331 0.92802,3.43705 0.20005,0.80589 l -0.0996,-0.38596 z m -1.3858,0.70269 c 0.83061,1.11329 2.10106,2.87018 0.60059,0.74559 -0.76726,-1.13655 0.21315,0.3864 -0.60059,-0.74559 z"
         fill="#e7b700"
         id="path59"
         style="stroke-width:1.89053" /><path
         d="m -117.47184,-87.19718 c -1.01892,-0.6038 -2.03776,-1.20741 -3.05668,-1.81126 0.66518,-2.09355 1.55842,-5.44847 1.40224,-8.12583 0.0977,-4.58721 -4.50792,-7.2884 -8.41875,-8.23487 -2.98981,-0.40017 -5.43401,1.8713 -8.1134,2.82161 -3.18359,2.26018 -6.89983,3.55317 -10.44127,5.12455 -1.65467,-2.12553 1.39031,-2.23172 2.9101,-3.02319 3.63531,-1.04452 6.467,-3.75113 10.11195,-4.7895 2.52528,-1.33259 5.39527,-2.43983 8.09765,-0.85514 2.7547,0.91878 5.56599,2.35989 6.7403,5.20133 1.89475,3.06951 -0.12572,6.51879 0.45324,9.73588 0.14784,1.31286 0.19582,2.63946 0.31462,3.95642 z"
         fill="#e7b700"
         id="path60"
         style="stroke-width:1.89053" /><path
         d="m -164.45336,-70.113017 c 0.39308,-1.11726 0.78627,-2.23431 1.17939,-3.35158 -1.85574,-1.1776 -4.69469,-3.17466 -6.29543,-5.3267 -3.02208,-3.45295 -1.2252,-8.481863 1.16346,-11.719353 2.03392,-2.22721 5.36615,-2.056 8.02944,-3.04849 3.89229,-0.31262 7.57125,-1.7093 11.2954,-2.77968 -0.0972,-2.69263 -2.50043,-0.81642 -4.17356,-0.44733 -3.45692,1.53448 -7.36521,1.27899 -10.82562,2.82418 -2.79159,0.60082 -5.70277,1.59581 -6.75621,4.54624 -1.52123,2.47337 -2.74856,5.383873 -1.82404,8.315683 0.51888,3.56927 4.28297,4.91586 5.90617,7.75297 0.7302,1.10108 1.54549,2.14866 2.301,3.23406 z"
         fill="#e7b700"
         id="path61"
         style="stroke-width:1.89053" /><path
         d="m -145.03441,-100.89767 c -2.51826,0.91575 -5.0365,1.83147 -7.55473,2.74716 1.87825,5.1652 3.7566,10.33066 5.63484,15.495883 2.51824,-0.91569 5.03648,-1.83144 7.55475,-2.74716 -1.87828,-5.165233 -3.75663,-10.330683 -5.63486,-15.495883 z"
         fill="#e7b700"
         id="path62"
         style="stroke-width:1.89053" /><path
         d="m -150.90476,-114.23043 c -0.92917,1.19735 -2.12622,6.19565 0.004,2.90827 0.90386,-1.46041 1.32074,-3.1615 1.82678,-0.70068 0.49931,1.37309 0.99861,2.74618 1.4979,4.1193 -1.45833,-0.93227 -6.00276,-2.31164 -3.07244,0.43219 1.36206,1.52488 4.17031,2.56176 1.00218,3.26439 -0.91698,0.12035 -2.96873,2.06574 -2.67783,0.24345 -0.11249,-1.87385 0.28327,-6.94559 -1.82691,-3.17629 -0.77926,1.8895 -1.15602,2.26755 -1.64185,0.19459 -0.47957,-1.31889 -0.95906,-2.63753 -1.43869,-3.95644 1.19843,0.92784 6.19446,2.12735 2.90808,-0.004 -1.46063,-0.90376 -3.16247,-1.32006 -0.70129,-1.82653 1.37375,-0.49955 2.74728,-0.99901 4.12105,-1.49854 z"
         fill="#e7b700"
         id="path63"
         style="stroke-width:1.89053" /><path
         d="m -153.80148,-101.57646 c 1.52031,4.9234 9.49227,2.02447 7.49503,-2.72548 -1.71756,-4.92398 -9.33184,-2.14525 -7.49503,2.72548 z"
         fill="#e7b700"
         id="path64"
         style="stroke-width:1.89053" /><path
         d="m -138.56757,-86.29213 c -1.15248,1.815343 -2.41911,5.754303 -1.85513,6.962313 1.84109,-1.17384 3.23837,-4.93257 4.04217,-5.67108 1.1239,3.0907 2.24768,6.18116 3.3716,9.27185 -1.81564,-1.15309 -5.7565,-2.41902 -6.96407,-1.85447 1.17439,1.84137 4.93351,3.23824 5.6728,4.04156 -3.09063,1.12384 -6.18115,2.24765 -9.27183,3.37157 1.15308,-1.81563 2.41904,-5.75658 1.85443,-6.96408 -1.8413,1.17442 -3.23822,4.93358 -4.04147,5.67281 -1.1239,-3.09071 -2.24768,-6.18113 -3.3716,-9.27184 1.81602,1.15143 5.75523,2.41751 6.96343,1.8527 -1.17496,-1.84012 -4.93342,-3.23656 -5.67218,-4.03975 3.09072,-1.1239 6.18115,-2.24768 9.27185,-3.371583 z"
         fill="#e7b700"
         id="path65"
         style="stroke-width:1.89053" /><path
         d="m -114.35952,-76.642907 c -1.67643,0.2953 -3.35312,0.5907 -5.02962,0.88603 1.45021,-1.58806 3.38204,-5.24743 3.03556,-6.53577 -2.01639,0.83671 -4.0451,4.29571 -4.96421,4.88381 -0.57011,-3.23934 -1.14048,-6.47858 -1.71059,-9.717943 1.58757,1.451023 5.24693,3.383443 6.53555,3.037053 -0.83671,-2.017323 -4.29652,-4.044763 -4.88476,-4.964083 1.56246,-0.27537 3.12517,-0.55062 4.68794,-0.8259 0.77662,4.412283 1.55352,8.824543 2.33013,13.236803 z"
         fill="#e7b700"
         id="path66"
         style="stroke-width:1.89053" /><path
         d="m -162.81382,-74.050167 c -0.81932,1.98823 -1.38254,6.08666 -0.61707,7.17906 1.60869,-1.47665 2.33094,-5.42102 2.99233,-6.28839 1.644,2.84883 3.28798,5.69764 4.93202,8.54649 -1.98793,-0.81914 -6.08732,-1.38305 -7.17899,-0.61661 1.47616,1.60785 5.42051,2.33138 6.28694,2.99486 -1.37411,0.79266 -2.74824,1.58513 -4.12236,2.3778 -2.23848,-3.88068 -4.4772,-7.7613 -6.71564,-11.64202 1.47427,-0.85041 2.94846,-1.70079 4.42277,-2.55119 z"
         fill="#e7b700"
         id="path67"
         style="stroke-width:1.89053" /><path
         d="m -114.57522,-77.112627 c 0.82463,2.29964 1.64911,4.59957 2.4737,6.89919 -12.33269,0.5122 -24.79566,3.24102 -35.45323,9.67837 -3.67522,2.12363 -7.22886,4.46658 -10.57943,7.07439 -0.83547,-2.29569 -1.67102,-4.5916 -2.5065,-6.88728 9.78541,-7.53775 21.09537,-13.45996 33.4057,-15.38158 4.1818,-0.73602 8.42013,-1.22767 12.65976,-1.38309 z"
         fill="#e7b700"
         id="path68"
         style="stroke-width:1.89053" /><path
         d="m -118.42812,-91.00169 c 1.25969,3.29671 5.69171,-0.78077 2.54236,-2.33855 -1.41351,-0.77687 -3.19881,0.86543 -2.54236,2.33855 z"
         fill="#fafafa"
         id="path69"
         style="stroke-width:1.89053" /><path
         d="m -117.63388,-95.81446 c 1.2597,3.29677 5.69169,-0.78081 2.54227,-2.33852 -1.4134,-0.77693 -3.19871,0.86544 -2.54227,2.33852 z"
         fill="#fafafa"
         id="path70"
         style="stroke-width:1.89053" /><path
         d="m -118.86877,-100.66888 c 1.25947,3.2968 5.69169,-0.78082 2.54204,-2.33846 -1.41319,-0.77697 -3.1985,0.86535 -2.54204,2.33846 z"
         fill="#fafafa"
         id="path71"
         style="stroke-width:1.89053" /><path
         d="m -121.86368,-104.5294 c 1.25973,3.29667 5.69173,-0.78085 2.54234,-2.33862 -1.41345,-0.77688 -3.19877,0.86544 -2.54234,2.33862 z"
         fill="#fafafa"
         id="path72"
         style="stroke-width:1.89053" /><path
         d="m -126.13585,-107.04204 c 1.25967,3.29669 5.69169,-0.78081 2.54226,-2.33857 -1.41347,-0.77685 -3.19877,0.86549 -2.54226,2.33857 z"
         fill="#fafafa"
         id="path73"
         style="stroke-width:1.89053" /><path
         d="m -131.10381,-108.06419 c 1.25969,3.29671 5.69173,-0.78083 2.54232,-2.33858 -1.41347,-0.77686 -3.19877,0.86548 -2.54232,2.33858 z"
         fill="#fafafa"
         id="path74"
         style="stroke-width:1.89053" /><path
         d="m -135.51774,-106.10523 c 1.2597,3.2967 5.69171,-0.78085 2.54231,-2.33856 -1.41345,-0.77688 -3.19875,0.86548 -2.54231,2.33856 z"
         fill="#fafafa"
         id="path75"
         style="stroke-width:1.89053" /><path
         d="m -139.77272,-103.70907 c 1.25967,3.2967 5.69171,-0.78084 2.5423,-2.33858 -1.41349,-0.77693 -3.19881,0.86543 -2.5423,2.33858 z"
         fill="#fafafa"
         id="path76"
         style="stroke-width:1.89053" /><path
         d="m -144.13114,-101.59459 c 1.2597,3.29672 5.69171,-0.78083 2.54227,-2.3386 -1.41342,-0.77689 -3.19872,0.86545 -2.54227,2.3386 z"
         fill="#fafafa"
         id="path77"
         style="stroke-width:1.89053" /><path
         d="m -166.16595,-73.642437 c 1.15216,3.33576 -4.86381,3.05751 -3.45058,-0.15935 0.58432,-1.50337 3.0075,-1.39139 3.45058,0.15935 z"
         fill="#fafafa"
         id="path78"
         style="stroke-width:1.89053" /><path
         d="m -169.86584,-76.821017 c 1.15216,3.33585 -4.86383,3.05753 -3.45064,-0.15929 0.58434,-1.50335 3.00752,-1.39139 3.45064,0.15929 z"
         fill="#fafafa"
         id="path79"
         style="stroke-width:1.89053" /><path
         d="m -172.03688,-81.335017 c 1.15212,3.33583 -4.86389,3.05756 -3.45068,-0.15932 0.58432,-1.50334 3.00754,-1.39135 3.45068,0.15932 z"
         fill="#fafafa"
         id="path80"
         style="stroke-width:1.89053" /><path
         d="m -172.22109,-86.21759 c 1.15212,3.335763 -4.86383,3.057533 -3.45066,-0.15939 0.58432,-1.50334 3.0075,-1.39135 3.45066,0.15939 z"
         fill="#fafafa"
         id="path81"
         style="stroke-width:1.89053" /><path
         d="m -170.56089,-90.88745 c 1.1521,3.33579 -4.86385,3.05753 -3.45068,-0.15933 0.58432,-1.50333 3.00754,-1.39137 3.45068,0.15933 z"
         fill="#fafafa"
         id="path82"
         style="stroke-width:1.89053" /><path
         d="m -167.41041,-94.86181 c 1.15213,3.33582 -4.86383,3.05757 -3.45062,-0.15933 0.58432,-1.50327 3.00749,-1.39135 3.45062,0.15933 z"
         fill="#fafafa"
         id="path83"
         style="stroke-width:1.89053" /><path
         d="m -162.76782,-96.1961 c 1.15214,3.33579 -4.86385,3.05753 -3.45068,-0.15933 0.58434,-1.50333 3.00756,-1.39136 3.45068,0.15933 z"
         fill="#fafafa"
         id="path84"
         style="stroke-width:1.89053" /><path
         d="m -157.96844,-97.09248 c 1.15212,3.3358 -4.86387,3.05755 -3.45066,-0.15929 0.58432,-1.50337 3.00752,-1.39141 3.45066,0.15929 z"
         fill="#fafafa"
         id="path85"
         style="stroke-width:1.89053" /><path
         d="m -153.27162,-98.27078 c 1.15212,3.33581 -4.86383,3.05754 -3.45066,-0.15934 0.58432,-1.50336 3.00752,-1.3914 3.45066,0.15934 z"
         fill="#fafafa"
         id="path86"
         style="stroke-width:1.89053" /><path
         d="m -145.70876,-85.536107 c 1.25973,3.2967 5.69173,-0.780863 2.54236,-2.338583 -1.41349,-0.77685 -3.19877,0.8655 -2.54236,2.338583 z"
         fill="#fafafa"
         id="path87"
         style="stroke-width:1.89053" /><path
         d="m -146.84378,-88.65737 c 1.25972,3.296683 5.69177,-0.78086 2.54234,-2.33858 -1.41347,-0.77689 -3.19877,0.8655 -2.54234,2.33858 z"
         fill="#fafafa"
         id="path88"
         style="stroke-width:1.89053" /><path
         d="m -147.75227,-91.15573 c 1.25973,3.29667 5.69177,-0.78087 2.54232,-2.33858 -1.41345,-0.77688 -3.19873,0.86546 -2.54232,2.33858 z"
         fill="#fafafa"
         id="path89"
         style="stroke-width:1.89053" /><path
         d="m -148.58128,-93.4355 c 1.25973,3.29668 5.69174,-0.78086 2.54236,-2.33858 -1.41348,-0.77687 -3.19877,0.8655 -2.54236,2.33858 z"
         fill="#fafafa"
         id="path90"
         style="stroke-width:1.89053" /><path
         d="m -150.53416,-98.80597 c 1.25971,3.29668 5.69173,-0.78083 2.54234,-2.33856 -1.41349,-0.77686 -3.19877,0.86548 -2.54234,2.33856 z"
         fill="#fafafa"
         id="path91"
         style="stroke-width:1.89053" /><path
         d="m -149.33107,-95.88611 c 1.25958,3.29647 5.69173,-0.78085 2.54233,-2.33858 -1.41348,-0.77682 -3.19881,0.8655 -2.54233,2.33858 z"
         fill="#fafafa"
         id="path92"
         style="stroke-width:1.89053" /><path
         d="m -135.11778,-72.130737 c -2.33271,0.84894 -4.6656,1.69798 -6.99836,2.54694 0.37007,1.01693 0.74016,2.03379 1.11025,3.05068 2.33274,-0.84898 4.66563,-1.69801 6.99834,-2.54695 -0.37007,-1.0169 -0.74014,-2.03375 -1.11023,-3.05067 z"
         fill="#002b7f"
         id="path93"
         style="stroke-width:1.89053" /><path
         d="m -145.4421,-65.816477 c -0.4688,3.01312 -3.96712,4.70376 -6.04702,2.92224 0.28634,-2.88494 4.16815,-4.76208 6.04702,-2.92224 z"
         fill="#3e8225"
         id="path94"
         style="stroke-width:1.89053" /><path
         d="m -114.01233,-75.438907 c 0.84786,2.07602 1.09762,3.59427 -1.46037,3.22726 -0.9163,-0.0495 -2.3166,0.45303 -2.95274,0.0838 0.18622,-0.85321 -0.56474,-2.50962 0.22091,-2.84912 1.39738,-0.15402 2.79484,-0.30783 4.1922,-0.46191 z"
         fill="#cc0000"
         id="path95"
         style="stroke-width:1.89053" /><path
         d="m -160.412,-58.552567 c 0.58693,2.16594 1.50682,3.44441 3.19461,1.53314 0.66994,-0.62684 2.06566,-1.14186 2.31527,-1.83343 -0.69124,-0.53385 -1.18094,-2.28534 -2.00103,-2.04044 -1.16969,0.7802 -2.33913,1.56053 -3.50885,2.34073 z"
         fill="#cc0000"
         id="path96"
         style="stroke-width:1.89053" /><path
         d="m -130.14999,-71.381747 c 2.2958,2.007 6.06246,1.05367 6.51078,-1.64795 -2.0736,-2.02608 -6.25399,-0.96914 -6.51078,1.64795 z"
         fill="#3e8225"
         id="path97"
         style="stroke-width:1.89053" /><path
         d="m -133.52143,-72.455417 c 1.67256,2.41075 2.52341,-2.56831 0.13933,-0.92622 z"
         fill="#fafafa"
         id="path98"
         style="stroke-width:1.89053" /><path
         d="m -132.79131,-69.612327 c 1.67258,2.41078 2.52317,-2.56839 0.13914,-0.92611 z"
         fill="#fafafa"
         id="path99"
         style="stroke-width:1.89053" /><path
         d="m -122.05016,-74.435567 c 1.6726,2.41076 2.52336,-2.56851 0.13914,-0.92634 z"
         fill="#fafafa"
         id="path100"
         style="stroke-width:1.89053" /><path
         d="m -122.18634,-71.460017 c 1.67257,2.41078 2.52338,-2.56848 0.13915,-0.92613 z"
         fill="#fafafa"
         id="path101"
         style="stroke-width:1.89053" /><path
         d="m -143.50706,-68.821317 c 0.2681,2.92185 -3.58394,-0.34564 -0.70195,-0.62003 z"
         fill="#fafafa"
         id="path102"
         style="stroke-width:1.89053" /><path
         d="m -142.24023,-66.173537 c 0.26815,2.92186 -3.58401,-0.34583 -0.70192,-0.62002 z"
         fill="#fafafa"
         id="path103"
         style="stroke-width:1.89053" /><path
         d="m -153.56862,-62.964997 c 0.26819,2.92187 -3.58395,-0.34585 -0.70197,-0.62024 z"
         fill="#fafafa"
         id="path104"
         style="stroke-width:1.89053" /><path
         d="m -151.55121,-60.773217 c 0.26814,2.9219 -3.584,-0.34581 -0.70187,-0.62001 z"
         fill="#fafafa"
         id="path105"
         style="stroke-width:1.89053" /><path
         d="m -160.97617,-66.773207 c 1.48869,4.0198 -5.74455,4.24377 -4.60328,0.1423 0.50596,-2.24769 3.95916,-2.35443 4.60328,-0.1423 z"
         fill="#fafafa"
         id="path106"
         style="stroke-width:1.89053" /><path
         d="m -118.29679,-82.305597 c 1.44323,4.03637 7.12853,-0.44113 3.61801,-2.8497 -1.83222,-1.396723 -4.54633,0.74103 -3.61801,2.8497 z"
         fill="#fafafa"
         id="path107"
         style="stroke-width:1.89053" /><path
         d="m -143.45456,-77.800157 c 1.4434,4.03629 7.12844,-0.44115 3.61815,-2.84977 -1.83243,-1.39661 -4.54653,0.74108 -3.61815,2.84977 z"
         fill="#fafafa"
         id="path108"
         style="stroke-width:1.89053" /><path
         d="m -110.94934,6.9630383 c 0,-1.479941 1.19973,-2.679668 2.67967,-2.679668 1.47994,0 2.67967,1.199727 2.67967,2.679668 0,1.479979 -1.19973,2.679668 -2.67967,2.679668 -1.47994,0 -2.67967,-1.199689 -2.67967,-2.679668 z m 1.60767,8.0382487 c 0,-1.479941 1.19969,-2.679669 2.67965,-2.679669 1.47996,0 2.67966,1.199728 2.67966,2.679669 0,1.479941 -1.1997,2.679668 -2.67966,2.679668 -1.47996,0 -2.67965,-1.199727 -2.67965,-2.679668 z m 1.60764,8.039061 c 0,-1.479979 1.19969,-2.679668 2.67963,-2.679668 1.47998,0 2.67967,1.199689 2.67967,2.679668 0,1.479941 -1.19969,2.679631 -2.67967,2.679631 -1.47994,0 -2.67963,-1.19969 -2.67963,-2.679631 z"
         fill="#e7b700"
         id="path109"
         style="stroke-width:1.89053" /><path
         d="m -144.17513,25.719979 c 0,-5.919405 4.79851,-10.717879 10.71792,-10.717879 5.9194,0 10.71788,4.798474 10.71788,10.717879 0,5.919442 -4.79848,10.717916 -10.71788,10.717916 -5.91941,0 -10.71792,-4.798474 -10.71792,-10.717916 z"
         fill="#e7b700"
         id="path110"
         style="stroke-width:1.89053" /><path
         d="M -133.45721,25.719979 V -1.075154"
         stroke="#e7b700"
         fill="none"
         stroke-width="3.76697"
         stroke-miterlimit="10"
         id="path111" /><path
         d="m -127.02665,6.9630383 h -12.86198"
         stroke="#e7b700"
         fill="none"
         stroke-width="3.76697"
         stroke-miterlimit="10"
         id="path112" /><path
         d="M -90.764655,12.508875 -92.253538,4.0648633"
         stroke="#e7b700"
         fill="none"
         stroke-width="3.76697"
         stroke-miterlimit="10"
         id="path113" /><path
         d="M -94.986349,13.253231 -96.475233,4.8092193"
         stroke="#002b7f"
         fill="none"
         stroke-width="3.76697"
         stroke-miterlimit="10"
         id="path114" /><path
         d="M -99.208667,13.997758 -100.69755,5.5537463"
         stroke="#fafafa"
         fill="none"
         stroke-width="3.76697"
         stroke-miterlimit="10"
         id="path115" /><path
         d="m -92.080915,14.917725 c -0.164437,-0.932558 0.458226,-1.821823 1.390803,-1.986242 0.932539,-0.164438 1.821805,0.458263 1.986205,1.390803 0.164438,0.932539 -0.458226,1.821804 -1.390803,1.986242 -0.932539,0.1644 -1.821805,-0.458263 -1.986205,-1.390803 z"
         fill="#e7b700"
         id="path116"
         style="stroke-width:1.89053" /><path
         d="m -96.302609,15.662101 c -0.164438,-0.932558 0.458245,-1.821824 1.390803,-1.986224 0.932539,-0.164438 1.821805,0.458245 1.986205,1.390803 0.164438,0.932539 -0.458226,1.821805 -1.390803,1.986224 -0.932539,0.164419 -1.821805,-0.458245 -1.986205,-1.390803 z"
         fill="#002b7f"
         id="path117"
         style="stroke-width:1.89053" /><path
         d="m -100.52493,16.40659 c -0.16443,-0.932521 0.45823,-1.821805 1.390806,-1.986224 0.932539,-0.1644 1.821805,0.458263 1.986205,1.390803 0.164419,0.932539 -0.458245,1.821804 -1.390803,1.986242 -0.932539,0.1644 -1.821818,-0.458263 -1.986208,-1.390821 z"
         fill="#fafafa"
         id="path118"
         style="stroke-width:1.89053" /><g
         clip-path="url(#cp0)"
         id="g120"
         transform="matrix(-1.8905252,0,0,1.8905252,-79.866874,-118.97222)"><path
           d="m 34.01608,58.96015 5.66927,2.26778"
           stroke="#e7b700"
           fill="none"
           stroke-width="3.9851"
           stroke-miterlimit="10"
           stroke-linecap="round"
           id="path119" /><path
           d="m 5.1022,59.5272 5.66927,-1.41742"
           stroke="#e7b700"
           fill="none"
           stroke-width="3.78584"
           stroke-miterlimit="10"
           stroke-linecap="round"
           id="path120" /></g><circle
         style="fill:none;fill-opacity:0.27451;stroke:#000000;stroke-width:6;stroke-linejoin:round;stroke-opacity:1;paint-order:stroke markers fill"
         id="path15"
         cx="-278.89352"
         cy="68.541901"
         r="60" /><path
         style="fill:none;stroke:#000000;stroke-width:1px;stroke-linecap:butt;stroke-linejoin:miter;stroke-opacity:1"
         d="M -223.75056,44.760167 -325.11532,106.74861"
         id="path16"
         sodipodi:nodetypes="cc" /><circle
         style="fill:#5f0000;fill-opacity:1;stroke:none;stroke-width:0.387384;stroke-linejoin:round;stroke-opacity:1;paint-order:stroke markers fill"
         id="path17"
         cx="-278.49399"
         cy="67.742004"
         r="9.8063078" /><path
         style="fill:none;stroke:#000000;stroke-width:1px;stroke-linecap:butt;stroke-linejoin:miter;stroke-opacity:1"
         d="M -219.59199,77.918069 -339.01363,75.538872"
         id="path18"
         sodipodi:nodetypes="cc" /><path
         style="fill:none;stroke:#000000;stroke-width:1px;stroke-linecap:butt;stroke-linejoin:miter;stroke-opacity:1"
         d="M -233.17247,109.41097 -332.36413,42.17586"
         id="path19"
         sodipodi:nodetypes="cc" /><path
         style="fill:none;stroke:#000000;stroke-width:1px;stroke-linecap:butt;stroke-linejoin:miter;stroke-opacity:1"
         d="M -262.69879,126.46141 -309.88326,17.34473"
         id="path20"
         sodipodi:nodetypes="cc" /><path
         style="fill:none;stroke:#000000;stroke-width:1px;stroke-linecap:butt;stroke-linejoin:miter;stroke-opacity:1"
         d="M -296.26555,125.67942 -277.57594,8.0997516"
         id="path21"
         sodipodi:nodetypes="cc" /><path
         style="fill:none;stroke:#000000;stroke-width:1px;stroke-linecap:butt;stroke-linejoin:miter;stroke-opacity:1"
         d="m -325.39957,107.45559 80.01572,-88.464394"
         id="path22"
         sodipodi:nodetypes="cc" /><path
         style="fill:none;stroke:#000000;stroke-width:1px;stroke-linecap:butt;stroke-linejoin:miter;stroke-opacity:1"
         d="M -338.58608,75.181071 -223.23046,44.859353"
         id="path23"
         sodipodi:nodetypes="cc" /><path
         style="fill:none;stroke:#000000;stroke-width:1px;stroke-linecap:butt;stroke-linejoin:miter;stroke-opacity:1"
         d="M -332.86362,41.634041 -218.7556,78.091566"
         id="path24"
         sodipodi:nodetypes="cc" /><path
         style="fill:none;stroke:#000000;stroke-width:1px;stroke-linecap:butt;stroke-linejoin:miter;stroke-opacity:1"
         d="m -310.04895,17.106554 75.58606,91.859846"
         id="path25"
         sodipodi:nodetypes="cc" /><path
         style="fill:none;stroke:#000000;stroke-width:1px;stroke-linecap:butt;stroke-linejoin:miter;stroke-opacity:1"
         d="M -277.33011,8.5137102 -263.25518,126.93258"
         id="path26"
         sodipodi:nodetypes="cc" /><path
         style="fill:none;stroke:#000000;stroke-width:1px;stroke-linecap:butt;stroke-linejoin:miter;stroke-opacity:1"
         d="m -245.39221,18.670331 -5.51251,9.851442 -46.32426,97.690147"
         id="path27"
         sodipodi:nodetypes="ccc" /><circle
         style="fill:none;fill-opacity:0.27451;stroke:#000000;stroke-width:6;stroke-linejoin:round;stroke-opacity:1;paint-order:stroke markers fill"
         id="circle27"
         cx="15.106483"
         cy="68.541901"
         r="60" /><path
         style="fill:none;stroke:#000000;stroke-width:1px;stroke-linecap:butt;stroke-linejoin:miter;stroke-opacity:1"
         d="M 70.24944,44.760167 -31.11532,106.74861"
         id="path28"
         sodipodi:nodetypes="cc" /><circle
         style="fill:#5f0000;fill-opacity:1;stroke:none;stroke-width:0.387384;stroke-linejoin:round;stroke-opacity:1;paint-order:stroke markers fill"
         id="circle28"
         cx="15.506012"
         cy="67.742004"
         r="9.8063078" /><path
         style="fill:none;stroke:#000000;stroke-width:1px;stroke-linecap:butt;stroke-linejoin:miter;stroke-opacity:1"
         d="M 74.40801,77.918069 -45.01363,75.538872"
         id="path29"
         sodipodi:nodetypes="cc" /><path
         style="fill:none;stroke:#000000;stroke-width:1px;stroke-linecap:butt;stroke-linejoin:miter;stroke-opacity:1"
         d="M 60.82753,109.41097 -38.36413,42.17586"
         id="path30"
         sodipodi:nodetypes="cc" /><path
         style="fill:none;stroke:#000000;stroke-width:1px;stroke-linecap:butt;stroke-linejoin:miter;stroke-opacity:1"
         d="M 31.30121,126.46141 -15.88326,17.34473"
         id="path31"
         sodipodi:nodetypes="cc" /><path
         style="fill:none;stroke:#000000;stroke-width:1px;stroke-linecap:butt;stroke-linejoin:miter;stroke-opacity:1"
         d="M -2.26555,125.67942 16.42406,8.0997516"
         id="path32"
         sodipodi:nodetypes="cc" /><path
         style="fill:none;stroke:#000000;stroke-width:1px;stroke-linecap:butt;stroke-linejoin:miter;stroke-opacity:1"
         d="M -31.39957,107.45559 48.61615,18.991196"
         id="path33"
         sodipodi:nodetypes="cc" /><path
         style="fill:none;stroke:#000000;stroke-width:1px;stroke-linecap:butt;stroke-linejoin:miter;stroke-opacity:1"
         d="M -44.58608,75.181071 70.76954,44.859353"
         id="path34"
         sodipodi:nodetypes="cc" /><path
         style="fill:none;stroke:#000000;stroke-width:1px;stroke-linecap:butt;stroke-linejoin:miter;stroke-opacity:1"
         d="M -38.86362,41.634041 75.2444,78.091566"
         id="path35"
         sodipodi:nodetypes="cc" /><path
         style="fill:none;stroke:#000000;stroke-width:1px;stroke-linecap:butt;stroke-linejoin:miter;stroke-opacity:1"
         d="M -16.04895,17.106554 59.53711,108.9664"
         id="path36"
         sodipodi:nodetypes="cc" /><path
         style="fill:none;stroke:#000000;stroke-width:1px;stroke-linecap:butt;stroke-linejoin:miter;stroke-opacity:1"
         d="M 16.66989,8.5137102 30.74482,126.93258"
         id="path37"
         sodipodi:nodetypes="cc" /><path
         style="fill:none;stroke:#000000;stroke-width:1px;stroke-linecap:butt;stroke-linejoin:miter;stroke-opacity:1"
         d="M 48.60779,18.670331 43.09528,28.521773 -3.22898,126.21192"
         id="path38"
         sodipodi:nodetypes="ccc" /><g
         id="g142"
         transform="matrix(1.7757513,0,0,1.7757513,88.64064,-99.0652)"><path
           id="path132"
           d="m -21.96211,56.4086 c -0.54578,6.2383 2.80461,11.62714 7.48344,12.03648 4.67885,0.40937 8.91414,-4.31579 9.45993,-10.55408 0.54578,-6.23827 -2.80461,-11.62711 -7.48346,-12.03648 -4.67883,-0.40936 -8.91412,4.3158 -9.45991,10.55408 z"
           style="fill:#e2dbd5;fill-opacity:1;fill-rule:nonzero;stroke:none"
           transform="matrix(1.3333333,0,0,-1.3333333,216.58267,95.788)"
           clip-path="url(#clipPath2)" /><path
           id="path133"
           d="m 197.19344,52.511734 c 9.29784,1.625187 24.11367,18.444587 8.46623,33.41152 -15.685,14.966936 -97.28645,4.951133 -57.78939,-43.767639 33.25987,17.877666 21.84547,1.512146 49.32316,10.356119 z"
           style="fill:#e2dbd5;fill-opacity:1;fill-rule:nonzero;stroke:none;stroke-width:1.33333" /><path
           id="path134"
           d="m 163.6689,39.094401 c 0,-13.046413 8.46073,-23.622332 18.89786,-23.622332 10.43714,0 18.89784,10.575919 18.89784,23.622332 0,13.046427 -8.4607,23.622333 -18.89784,23.622333 -10.43713,0 -18.89786,-10.575906 -18.89786,-23.622333 z"
           style="fill:#e2dbd5;fill-opacity:1;fill-rule:nonzero;stroke:none;stroke-width:1.33333" /><path
           id="path135"
           d="m 201.23739,40.152681 c -8.95756,-2.192106 -5.10223,6.387707 -19.04896,3.855347 31.25751,19.653386 24.22731,0.03751 19.04896,-3.855347 z"
           style="fill:#cbc5c0;fill-opacity:1;fill-rule:nonzero;stroke:none;stroke-width:1.33333" /><path
           id="path136"
           d="m 182.39391,37.139908 c -0.89241,-2.451906 -0.19599,-4.956333 1.55556,-5.593826 1.75153,-0.637494 3.89485,0.833333 4.78727,3.28524 0.89242,2.451919 0.19598,4.956359 -1.55554,5.593839 -1.75153,0.637507 -3.89485,-0.833333 -4.78729,-3.285253 z"
           style="fill:#fffdd9;fill-opacity:1;fill-rule:nonzero;stroke:none;stroke-width:1.33333" /><path
           id="path137"
           d="m 183.36096,37.189961 c -0.50972,-1.400453 -0.35516,-2.742359 0.3452,-2.997253 0.70038,-0.25492 1.68136,0.673694 2.19107,2.07416 0.50971,1.400427 0.35516,2.742347 -0.34523,2.997253 -0.70034,0.254894 -1.68133,-0.67372 -2.19104,-2.07416 z"
           style="fill:#000000;fill-opacity:1;fill-rule:nonzero;stroke:none;stroke-width:1.33333" /><path
           id="path138"
           d="m 193.42878,34.229495 c -0.81606,-2.242107 -0.2278,-4.514573 1.31393,-5.075707 1.54172,-0.561133 3.45308,0.801507 4.26913,3.043614 0.81607,2.242106 0.22782,4.514573 -1.31392,5.075706 -1.5417,0.561133 -3.45306,-0.801507 -4.26914,-3.043613 z"
           style="fill:#fffdd9;fill-opacity:1;fill-rule:nonzero;stroke:none;stroke-width:1.33333" /><path
           id="path139"
           d="m 194.26868,34.326375 c -0.45904,-1.261253 -0.37652,-2.4492 0.18438,-2.653347 0.56089,-0.20412 1.3877,0.652814 1.84677,1.91408 0.45907,1.261254 0.37653,2.4492 -0.18436,2.65332 -0.56089,0.204147 -1.38772,-0.6528 -1.84679,-1.914053 z"
           style="fill:#000000;fill-opacity:1;fill-rule:nonzero;stroke:none;stroke-width:1.33333" /><path
           id="path140"
           d="m 187.73703,28.001242 c -6.01343,-19.4607598 -23.57678,-2.437774 -23.76596,7.865266 -1.18284,-21.211079 26.86524,-37.6215589 27.19396,-8.738413 0,0 -3.364,0.907187 -3.428,0.873147 z"
           style="fill:#cbc5c0;fill-opacity:1;fill-rule:nonzero;stroke:none;stroke-width:1.33333" /><path
           id="path141"
           d="m 149.39287,44.563415 c -12.40462,0.69552 -15.79515,7.366413 -21.41929,13.542479 -6.96963,7.649573 -25.00531,4.081414 -17.96415,3.654667 11.33134,-0.684 9.48698,-9.39244 14.21492,-15.681546 4.22964,-5.6276 16.98145,-10.556227 25.16852,-1.5156 z"
           style="fill:#cbc5c0;fill-opacity:1;fill-rule:nonzero;stroke:none;stroke-width:1.33333" /><path
           id="path142"
           d="m -44.83632,53.78352 c -0.54578,6.23828 2.80462,11.62714 7.48346,12.03648 4.67883,0.40937 8.91412,-4.31579 9.45992,-10.55407 0.54577,-6.23828 -2.80462,-11.62712 -7.48345,-12.03648 -4.67883,-0.40937 -8.91414,4.31579 -9.45993,10.55407 z"
           style="fill:#e2dbd5;fill-opacity:1;fill-rule:nonzero;stroke:none"
           transform="matrix(1.3333333,0,0,-1.3333333,216.58267,95.788)"
           clip-path="url(#clipPath13)" /></g><g
         id="g164"
         transform="matrix(1.7757513,0,0,1.7757513,254.64064,-99.0652)"><path
           id="path154"
           d="m -21.96211,56.4086 c -0.54578,6.2383 2.80461,11.62714 7.48344,12.03648 4.67885,0.40937 8.91414,-4.31579 9.45993,-10.55408 0.54578,-6.23827 -2.80461,-11.62711 -7.48346,-12.03648 -4.67883,-0.40936 -8.91412,4.3158 -9.45991,10.55408 z"
           style="fill:#e2dbd5;fill-opacity:1;fill-rule:nonzero;stroke:none"
           transform="matrix(1.3333333,0,0,-1.3333333,216.58267,95.788)"
           clip-path="url(#clipPath2)" /><path
           id="path155"
           d="m 197.19344,52.511734 c 9.29784,1.625187 24.11367,18.444587 8.46623,33.41152 -15.685,14.966936 -97.28645,4.951133 -57.78939,-43.767639 33.25987,17.877666 21.84547,1.512146 49.32316,10.356119 z"
           style="fill:#e2dbd5;fill-opacity:1;fill-rule:nonzero;stroke:none;stroke-width:1.33333" /><path
           id="path156"
           d="m 163.6689,39.094401 c 0,-13.046413 8.46073,-23.622332 18.89786,-23.622332 10.43714,0 18.89784,10.575919 18.89784,23.622332 0,13.046427 -8.4607,23.622333 -18.89784,23.622333 -10.43713,0 -18.89786,-10.575906 -18.89786,-23.622333 z"
           style="fill:#e2dbd5;fill-opacity:1;fill-rule:nonzero;stroke:none;stroke-width:1.33333" /><path
           id="path157"
           d="m 201.23739,40.152681 c -8.95756,-2.192106 -5.10223,6.387707 -19.04896,3.855347 31.25751,19.653386 24.22731,0.03751 19.04896,-3.855347 z"
           style="fill:#cbc5c0;fill-opacity:1;fill-rule:nonzero;stroke:none;stroke-width:1.33333" /><path
           id="path158"
           d="m 182.39391,37.139908 c -0.89241,-2.451906 -0.19599,-4.956333 1.55556,-5.593826 1.75153,-0.637494 3.89485,0.833333 4.78727,3.28524 0.89242,2.451919 0.19598,4.956359 -1.55554,5.593839 -1.75153,0.637507 -3.89485,-0.833333 -4.78729,-3.285253 z"
           style="fill:#fffdd9;fill-opacity:1;fill-rule:nonzero;stroke:none;stroke-width:1.33333" /><path
           id="path159"
           d="m 183.36096,37.189961 c -0.50972,-1.400453 -0.35516,-2.742359 0.3452,-2.997253 0.70038,-0.25492 1.68136,0.673694 2.19107,2.07416 0.50971,1.400427 0.35516,2.742347 -0.34523,2.997253 -0.70034,0.254894 -1.68133,-0.67372 -2.19104,-2.07416 z"
           style="fill:#000000;fill-opacity:1;fill-rule:nonzero;stroke:none;stroke-width:1.33333" /><path
           id="path160"
           d="m 193.42878,34.229495 c -0.81606,-2.242107 -0.2278,-4.514573 1.31393,-5.075707 1.54172,-0.561133 3.45308,0.801507 4.26913,3.043614 0.81607,2.242106 0.22782,4.514573 -1.31392,5.075706 -1.5417,0.561133 -3.45306,-0.801507 -4.26914,-3.043613 z"
           style="fill:#fffdd9;fill-opacity:1;fill-rule:nonzero;stroke:none;stroke-width:1.33333" /><path
           id="path161"
           d="m 194.26868,34.326375 c -0.45904,-1.261253 -0.37652,-2.4492 0.18438,-2.653347 0.56089,-0.20412 1.3877,0.652814 1.84677,1.91408 0.45907,1.261254 0.37653,2.4492 -0.18436,2.65332 -0.56089,0.204147 -1.38772,-0.6528 -1.84679,-1.914053 z"
           style="fill:#000000;fill-opacity:1;fill-rule:nonzero;stroke:none;stroke-width:1.33333" /><path
           id="path162"
           d="m 187.73703,28.001242 c -6.01343,-19.4607598 -23.57678,-2.437774 -23.76596,7.865266 -1.18284,-21.211079 26.86524,-37.6215589 27.19396,-8.738413 0,0 -3.364,0.907187 -3.428,0.873147 z"
           style="fill:#cbc5c0;fill-opacity:1;fill-rule:nonzero;stroke:none;stroke-width:1.33333" /><path
           id="path163"
           d="m 149.39287,44.563415 c -12.40462,0.69552 -15.79515,7.366413 -21.41929,13.542479 -6.96963,7.649573 -25.00531,4.081414 -17.96415,3.654667 11.33134,-0.684 9.48698,-9.39244 14.21492,-15.681546 4.22964,-5.6276 16.98145,-10.556227 25.16852,-1.5156 z"
           style="fill:#cbc5c0;fill-opacity:1;fill-rule:nonzero;stroke:none;stroke-width:1.33333" /><path
           id="path164"
           d="m -44.83632,53.78352 c -0.54578,6.23828 2.80462,11.62714 7.48346,12.03648 4.67883,0.40937 8.91412,-4.31579 9.45992,-10.55407 0.54577,-6.23828 -2.80462,-11.62712 -7.48345,-12.03648 -4.67883,-0.40937 -8.91414,4.31579 -9.45993,10.55407 z"
           style="fill:#e2dbd5;fill-opacity:1;fill-rule:nonzero;stroke:none"
           transform="matrix(1.3333333,0,0,-1.3333333,216.58267,95.788)"
           clip-path="url(#clipPath13)" /></g><path
         style="fill:none;stroke:#000000;stroke-width:5.94234;stroke-linecap:butt;stroke-linejoin:miter;stroke-opacity:1"
         d="M -56.273428,25.197151 555.71805,23.701525 v -1.495628"
         id="path176" /><g
         id="g38"
         transform="matrix(1.7757513,0,0,1.7757513,-109.35936,-55.0652)"><path
           id="path1"
           d="m -21.96211,56.4086 c -0.54578,6.2383 2.80461,11.62714 7.48344,12.03648 4.67885,0.40937 8.91414,-4.31579 9.45993,-10.55408 0.54578,-6.23827 -2.80461,-11.62711 -7.48346,-12.03648 -4.67883,-0.40936 -8.91412,4.3158 -9.45991,10.55408 z"
           style="fill:#e2dbd5;fill-opacity:1;fill-rule:nonzero;stroke:none"
           transform="matrix(1.3333333,0,0,-1.3333333,216.58267,95.788)"
           clip-path="url(#clipPath2)" /><path
           id="path3"
           d="m 197.19344,52.511734 c 9.29784,1.625187 24.11367,18.444587 8.46623,33.41152 -15.685,14.966936 -97.28645,4.951133 -57.78939,-43.767639 33.25987,17.877666 21.84547,1.512146 49.32316,10.356119 z"
           style="fill:#e2dbd5;fill-opacity:1;fill-rule:nonzero;stroke:none;stroke-width:1.33333" /><path
           id="path4"
           d="m 163.6689,39.094401 c 0,-13.046413 8.46073,-23.622332 18.89786,-23.622332 10.43714,0 18.89784,10.575919 18.89784,23.622332 0,13.046427 -8.4607,23.622333 -18.89784,23.622333 -10.43713,0 -18.89786,-10.575906 -18.89786,-23.622333 z"
           style="fill:#e2dbd5;fill-opacity:1;fill-rule:nonzero;stroke:none;stroke-width:1.33333" /><path
           id="path5"
           d="m 201.23739,40.152681 c -8.95756,-2.192106 -5.10223,6.387707 -19.04896,3.855347 31.25751,19.653386 24.22731,0.03751 19.04896,-3.855347 z"
           style="fill:#cbc5c0;fill-opacity:1;fill-rule:nonzero;stroke:none;stroke-width:1.33333" /><path
           id="path6"
           d="m 182.39391,37.139908 c -0.89241,-2.451906 -0.19599,-4.956333 1.55556,-5.593826 1.75153,-0.637494 3.89485,0.833333 4.78727,3.28524 0.89242,2.451919 0.19598,4.956359 -1.55554,5.593839 -1.75153,0.637507 -3.89485,-0.833333 -4.78729,-3.285253 z"
           style="fill:#fffdd9;fill-opacity:1;fill-rule:nonzero;stroke:none;stroke-width:1.33333" /><path
           id="path7"
           d="m 183.36096,37.189961 c -0.50972,-1.400453 -0.35516,-2.742359 0.3452,-2.997253 0.70038,-0.25492 1.68136,0.673694 2.19107,2.07416 0.50971,1.400427 0.35516,2.742347 -0.34523,2.997253 -0.70034,0.254894 -1.68133,-0.67372 -2.19104,-2.07416 z"
           style="fill:#000000;fill-opacity:1;fill-rule:nonzero;stroke:none;stroke-width:1.33333" /><path
           id="path8"
           d="m 193.42878,34.229495 c -0.81606,-2.242107 -0.2278,-4.514573 1.31393,-5.075707 1.54172,-0.561133 3.45308,0.801507 4.26913,3.043614 0.81607,2.242106 0.22782,4.514573 -1.31392,5.075706 -1.5417,0.561133 -3.45306,-0.801507 -4.26914,-3.043613 z"
           style="fill:#fffdd9;fill-opacity:1;fill-rule:nonzero;stroke:none;stroke-width:1.33333" /><path
           id="path9"
           d="m 194.26868,34.326375 c -0.45904,-1.261253 -0.37652,-2.4492 0.18438,-2.653347 0.56089,-0.20412 1.3877,0.652814 1.84677,1.91408 0.45907,1.261254 0.37653,2.4492 -0.18436,2.65332 -0.56089,0.204147 -1.38772,-0.6528 -1.84679,-1.914053 z"
           style="fill:#000000;fill-opacity:1;fill-rule:nonzero;stroke:none;stroke-width:1.33333" /><path
           id="path10"
           d="m 187.73703,28.001242 c -6.01343,-19.4607598 -23.57678,-2.437774 -23.76596,7.865266 -1.18284,-21.211079 26.86524,-37.6215589 27.19396,-8.738413 0,0 -3.364,0.907187 -3.428,0.873147 z"
           style="fill:#cbc5c0;fill-opacity:1;fill-rule:nonzero;stroke:none;stroke-width:1.33333" /><path
           id="path11"
           d="m 149.39287,44.563415 c -12.40462,0.69552 -15.79515,7.366413 -21.41929,13.542479 -6.96963,7.649573 -25.00531,4.081414 -17.96415,3.654667 11.33134,-0.684 9.48698,-9.39244 14.21492,-15.681546 4.22964,-5.6276 16.98145,-10.556227 25.16852,-1.5156 z"
           style="fill:#cbc5c0;fill-opacity:1;fill-rule:nonzero;stroke:none;stroke-width:1.33333" /><path
           id="path12"
           d="m -44.83632,53.78352 c -0.54578,6.23828 2.80462,11.62714 7.48346,12.03648 4.67883,0.40937 8.91412,-4.31579 9.45992,-10.55407 0.54577,-6.23828 -2.80462,-11.62712 -7.48345,-12.03648 -4.67883,-0.40937 -8.91414,4.31579 -9.45993,10.55407 z"
           style="fill:#e2dbd5;fill-opacity:1;fill-rule:nonzero;stroke:none"
           transform="matrix(1.3333333,0,0,-1.3333333,216.58267,95.788)"
           clip-path="url(#clipPath13)" /></g><g
         id="g153"
         transform="matrix(1.7757513,0,0,1.7757513,50.64064,-55.0652)"><path
           id="path143"
           d="m -21.96211,56.4086 c -0.54578,6.2383 2.80461,11.62714 7.48344,12.03648 4.67885,0.40937 8.91414,-4.31579 9.45993,-10.55408 0.54578,-6.23827 -2.80461,-11.62711 -7.48346,-12.03648 -4.67883,-0.40936 -8.91412,4.3158 -9.45991,10.55408 z"
           style="fill:#e2dbd5;fill-opacity:1;fill-rule:nonzero;stroke:none"
           transform="matrix(1.3333333,0,0,-1.3333333,216.58267,95.788)"
           clip-path="url(#clipPath2)" /><path
           id="path144"
           d="m 197.19344,52.511734 c 9.29784,1.625187 24.11367,18.444587 8.46623,33.41152 -15.685,14.966936 -97.28645,4.951133 -57.78939,-43.767639 33.25987,17.877666 21.84547,1.512146 49.32316,10.356119 z"
           style="fill:#e2dbd5;fill-opacity:1;fill-rule:nonzero;stroke:none;stroke-width:1.33333" /><path
           id="path145"
           d="m 163.6689,39.094401 c 0,-13.046413 8.46073,-23.622332 18.89786,-23.622332 10.43714,0 18.89784,10.575919 18.89784,23.622332 0,13.046427 -8.4607,23.622333 -18.89784,23.622333 -10.43713,0 -18.89786,-10.575906 -18.89786,-23.622333 z"
           style="fill:#e2dbd5;fill-opacity:1;fill-rule:nonzero;stroke:none;stroke-width:1.33333" /><path
           id="path146"
           d="m 201.23739,40.152681 c -8.95756,-2.192106 -5.10223,6.387707 -19.04896,3.855347 31.25751,19.653386 24.22731,0.03751 19.04896,-3.855347 z"
           style="fill:#cbc5c0;fill-opacity:1;fill-rule:nonzero;stroke:none;stroke-width:1.33333" /><path
           id="path147"
           d="m 182.39391,37.139908 c -0.89241,-2.451906 -0.19599,-4.956333 1.55556,-5.593826 1.75153,-0.637494 3.89485,0.833333 4.78727,3.28524 0.89242,2.451919 0.19598,4.956359 -1.55554,5.593839 -1.75153,0.637507 -3.89485,-0.833333 -4.78729,-3.285253 z"
           style="fill:#fffdd9;fill-opacity:1;fill-rule:nonzero;stroke:none;stroke-width:1.33333" /><path
           id="path148"
           d="m 183.36096,37.189961 c -0.50972,-1.400453 -0.35516,-2.742359 0.3452,-2.997253 0.70038,-0.25492 1.68136,0.673694 2.19107,2.07416 0.50971,1.400427 0.35516,2.742347 -0.34523,2.997253 -0.70034,0.254894 -1.68133,-0.67372 -2.19104,-2.07416 z"
           style="fill:#000000;fill-opacity:1;fill-rule:nonzero;stroke:none;stroke-width:1.33333" /><path
           id="path149"
           d="m 193.42878,34.229495 c -0.81606,-2.242107 -0.2278,-4.514573 1.31393,-5.075707 1.54172,-0.561133 3.45308,0.801507 4.26913,3.043614 0.81607,2.242106 0.22782,4.514573 -1.31392,5.075706 -1.5417,0.561133 -3.45306,-0.801507 -4.26914,-3.043613 z"
           style="fill:#fffdd9;fill-opacity:1;fill-rule:nonzero;stroke:none;stroke-width:1.33333" /><path
           id="path150"
           d="m 194.26868,34.326375 c -0.45904,-1.261253 -0.37652,-2.4492 0.18438,-2.653347 0.56089,-0.20412 1.3877,0.652814 1.84677,1.91408 0.45907,1.261254 0.37653,2.4492 -0.18436,2.65332 -0.56089,0.204147 -1.38772,-0.6528 -1.84679,-1.914053 z"
           style="fill:#000000;fill-opacity:1;fill-rule:nonzero;stroke:none;stroke-width:1.33333" /><path
           id="path151"
           d="m 187.73703,28.001242 c -6.01343,-19.4607598 -23.57678,-2.437774 -23.76596,7.865266 -1.18284,-21.211079 26.86524,-37.6215589 27.19396,-8.738413 0,0 -3.364,0.907187 -3.428,0.873147 z"
           style="fill:#cbc5c0;fill-opacity:1;fill-rule:nonzero;stroke:none;stroke-width:1.33333" /><path
           id="path152"
           d="m 149.39287,44.563415 c -12.40462,0.69552 -15.79515,7.366413 -21.41929,13.542479 -6.96963,7.649573 -25.00531,4.081414 -17.96415,3.654667 11.33134,-0.684 9.48698,-9.39244 14.21492,-15.681546 4.22964,-5.6276 16.98145,-10.556227 25.16852,-1.5156 z"
           style="fill:#cbc5c0;fill-opacity:1;fill-rule:nonzero;stroke:none;stroke-width:1.33333" /><path
           id="path153"
           d="m -44.83632,53.78352 c -0.54578,6.23828 2.80462,11.62714 7.48346,12.03648 4.67883,0.40937 8.91412,-4.31579 9.45992,-10.55407 0.54577,-6.23828 -2.80462,-11.62712 -7.48345,-12.03648 -4.67883,-0.40937 -8.91414,4.31579 -9.45993,10.55407 z"
           style="fill:#e2dbd5;fill-opacity:1;fill-rule:nonzero;stroke:none"
           transform="matrix(1.3333333,0,0,-1.3333333,216.58267,95.788)"
           clip-path="url(#clipPath13)" /></g><g
         id="g175"
         transform="matrix(1.7757513,0,0,1.7757513,216.64064,-55.0652)"><path
           id="path165"
           d="m -21.96211,56.4086 c -0.54578,6.2383 2.80461,11.62714 7.48344,12.03648 4.67885,0.40937 8.91414,-4.31579 9.45993,-10.55408 0.54578,-6.23827 -2.80461,-11.62711 -7.48346,-12.03648 -4.67883,-0.40936 -8.91412,4.3158 -9.45991,10.55408 z"
           style="fill:#e2dbd5;fill-opacity:1;fill-rule:nonzero;stroke:none"
           transform="matrix(1.3333333,0,0,-1.3333333,216.58267,95.788)"
           clip-path="url(#clipPath2)" /><path
           id="path166"
           d="m 197.19344,52.511734 c 9.29784,1.625187 24.11367,18.444587 8.46623,33.41152 -15.685,14.966936 -97.28645,4.951133 -57.78939,-43.767639 33.25987,17.877666 21.84547,1.512146 49.32316,10.356119 z"
           style="fill:#e2dbd5;fill-opacity:1;fill-rule:nonzero;stroke:none;stroke-width:1.33333" /><path
           id="path167"
           d="m 163.6689,39.094401 c 0,-13.046413 8.46073,-23.622332 18.89786,-23.622332 10.43714,0 18.89784,10.575919 18.89784,23.622332 0,13.046427 -8.4607,23.622333 -18.89784,23.622333 -10.43713,0 -18.89786,-10.575906 -18.89786,-23.622333 z"
           style="fill:#e2dbd5;fill-opacity:1;fill-rule:nonzero;stroke:none;stroke-width:1.33333" /><path
           id="path168"
           d="m 201.23739,40.152681 c -8.95756,-2.192106 -5.10223,6.387707 -19.04896,3.855347 31.25751,19.653386 24.22731,0.03751 19.04896,-3.855347 z"
           style="fill:#cbc5c0;fill-opacity:1;fill-rule:nonzero;stroke:none;stroke-width:1.33333" /><path
           id="path169"
           d="m 182.39391,37.139908 c -0.89241,-2.451906 -0.19599,-4.956333 1.55556,-5.593826 1.75153,-0.637494 3.89485,0.833333 4.78727,3.28524 0.89242,2.451919 0.19598,4.956359 -1.55554,5.593839 -1.75153,0.637507 -3.89485,-0.833333 -4.78729,-3.285253 z"
           style="fill:#fffdd9;fill-opacity:1;fill-rule:nonzero;stroke:none;stroke-width:1.33333" /><path
           id="path170"
           d="m 183.36096,37.189961 c -0.50972,-1.400453 -0.35516,-2.742359 0.3452,-2.997253 0.70038,-0.25492 1.68136,0.673694 2.19107,2.07416 0.50971,1.400427 0.35516,2.742347 -0.34523,2.997253 -0.70034,0.254894 -1.68133,-0.67372 -2.19104,-2.07416 z"
           style="fill:#000000;fill-opacity:1;fill-rule:nonzero;stroke:none;stroke-width:1.33333" /><path
           id="path171"
           d="m 193.42878,34.229495 c -0.81606,-2.242107 -0.2278,-4.514573 1.31393,-5.075707 1.54172,-0.561133 3.45308,0.801507 4.26913,3.043614 0.81607,2.242106 0.22782,4.514573 -1.31392,5.075706 -1.5417,0.561133 -3.45306,-0.801507 -4.26914,-3.043613 z"
           style="fill:#fffdd9;fill-opacity:1;fill-rule:nonzero;stroke:none;stroke-width:1.33333" /><path
           id="path172"
           d="m 194.26868,34.326375 c -0.45904,-1.261253 -0.37652,-2.4492 0.18438,-2.653347 0.56089,-0.20412 1.3877,0.652814 1.84677,1.91408 0.45907,1.261254 0.37653,2.4492 -0.18436,2.65332 -0.56089,0.204147 -1.38772,-0.6528 -1.84679,-1.914053 z"
           style="fill:#000000;fill-opacity:1;fill-rule:nonzero;stroke:none;stroke-width:1.33333" /><path
           id="path173"
           d="m 187.73703,28.001242 c -6.01343,-19.4607598 -23.57678,-2.437774 -23.76596,7.865266 -1.18284,-21.211079 26.86524,-37.6215589 27.19396,-8.738413 0,0 -3.364,0.907187 -3.428,0.873147 z"
           style="fill:#cbc5c0;fill-opacity:1;fill-rule:nonzero;stroke:none;stroke-width:1.33333" /><path
           id="path174"
           d="m 149.39287,44.563415 c -12.40462,0.69552 -15.79515,7.366413 -21.41929,13.542479 -6.96963,7.649573 -25.00531,4.081414 -17.96415,3.654667 11.33134,-0.684 9.48698,-9.39244 14.21492,-15.681546 4.22964,-5.6276 16.98145,-10.556227 25.16852,-1.5156 z"
           style="fill:#cbc5c0;fill-opacity:1;fill-rule:nonzero;stroke:none;stroke-width:1.33333" /><path
           id="path175"
           d="m -44.83632,53.78352 c -0.54578,6.23828 2.80462,11.62714 7.48346,12.03648 4.67883,0.40937 8.91412,-4.31579 9.45992,-10.55407 0.54577,-6.23828 -2.80462,-11.62712 -7.48345,-12.03648 -4.67883,-0.40937 -8.91414,4.31579 -9.45993,10.55407 z"
           style="fill:#e2dbd5;fill-opacity:1;fill-rule:nonzero;stroke:none"
           transform="matrix(1.3333333,0,0,-1.3333333,216.58267,95.788)"
           clip-path="url(#clipPath13)" /></g><path
         style="fill:none;stroke:#000000;stroke-width:6;stroke-linecap:butt;stroke-linejoin:miter;stroke-opacity:1"
         d="m -250.42083,-12.672042 -28.15383,78.534345 66.68011,-50.380523"
         id="path177"
         sodipodi:nodetypes="ccc" /><path
         style="fill:none;stroke:#000000;stroke-width:6;stroke-linecap:butt;stroke-linejoin:miter;stroke-opacity:1"
         d="M -16.459371,-12.672042 11.694459,65.862303 -54.985651,15.48178"
         id="path178"
         sodipodi:nodetypes="ccc" /><path
         style="fill:#5f0000;stroke:none;stroke-width:1px;stroke-linecap:butt;stroke-linejoin:miter;stroke-opacity:1"
         d="m -270.5659,-10.171594 c 30.79742,-40.647273 88.09958,49.349335 132.55389,49.512781 C -84.094714,39.539425 -23.925806,-53.518856 6.6276951,-9.002001 -29.948185,-16.731725 -74.043443,100.97542 -140.35119,100.93977 -195.03066,100.91037 -231.69015,-16.966686 -270.5659,-10.171594 Z"
         id="path14"
         sodipodi:nodetypes="cscsc" /></g></g></svg>
