<?xml version="1.0" encoding="UTF-8" standalone="no"?>
<!-- Created with Inkscape (http://www.inkscape.org/) -->

<svg
   width="108.61035mm"
   height="57.38216mm"
   viewBox="0 0 108.61035 57.38216"
   version="1.1"
   id="svg1"
   inkscape:version="1.3 (0e150ed, 2023-07-21)"
   sodipodi:docname="door.svg"
   xml:space="preserve"
   xmlns:inkscape="http://www.inkscape.org/namespaces/inkscape"
   xmlns:sodipodi="http://sodipodi.sourceforge.net/DTD/sodipodi-0.dtd"
   xmlns="http://www.w3.org/2000/svg"
   xmlns:svg="http://www.w3.org/2000/svg"><sodipodi:namedview
     id="namedview1"
     pagecolor="#ffffff"
     bordercolor="#666666"
     borderopacity="1.0"
     inkscape:showpageshadow="2"
     inkscape:pageopacity="0.0"
     inkscape:pagecheckerboard="0"
     inkscape:deskcolor="#d1d1d1"
     inkscape:document-units="mm"
     inkscape:zoom="2.8456876"
     inkscape:cx="251.43308"
     inkscape:cy="161.2967"
     inkscape:window-width="1440"
     inkscape:window-height="847"
     inkscape:window-x="0"
     inkscape:window-y="25"
     inkscape:window-maximized="0"
     inkscape:current-layer="layer1"><inkscape:page
       x="0"
       y="0"
       width="108.61035"
       height="57.38216"
       id="page1"
       margin="3mm"
       bleed="0" /></sodipodi:namedview><defs
     id="defs1" /><g
     inkscape:label="Layer 1"
     inkscape:groupmode="layer"
     id="layer1"
     transform="translate(-20.572416,-178.67802)"><g
       id="g10"
       transform="matrix(0.84349897,-0.3710863,-0.53713079,-0.58274618,133.29285,384.99579)"
       style="fill:#000000;fill-opacity:0.09576838"><path
         id="path10"
         style="fill:#000000;fill-opacity:0.09576838;stroke-width:0.603154"
         d="m 108.70583,218.05216 c -2.35475,1.56197 -5.04173,2.64714 -7.84469,3.04628 0.75935,-1.60158 1.85548,-3.10674 1.94918,-4.93706 0.22043,-2.16968 1.08704,-4.22337 2.33475,-5.99848 0.52971,-1.08918 2.57219,-2.21586 2.74057,-0.28667 0.24163,1.42892 -0.31508,2.91213 -0.25642,4.26842 1.60333,-0.84305 3.52359,-1.22005 5.36606,-1.00507 0.51753,0.19238 -0.93809,1.31823 -1.11929,1.97564 -0.73307,1.28478 -1.98699,2.11027 -3.17016,2.93694 z m -5.48027,-4.18437 c 0.93385,0.6618 0.41489,2.33327 0.74671,3.399 0.13668,1.31132 0.27336,2.62263 0.41004,3.93394 -3.95202,2.17781 -8.540113,2.71245 -12.95967,3.15805 -2.296765,0.17733 -4.606038,0.20606 -6.905435,0.0608 0.189125,-2.63669 0.476713,-5.26488 0.705497,-7.89816 0.370174,0.4518 1.899963,2.07696 0.714085,0.82047 -1.213374,-1.18224 -0.239019,-2.89254 0.231382,-4.18737 0.916452,-1.65454 -0.605896,-3.60002 0.472014,-5.19347 1.169251,-1.52629 2.729212,-2.70258 3.94168,-4.17683 0.784133,-0.0945 1.325799,-0.82093 2.076941,-0.99653 0.454485,-0.79643 1.437697,0.20523 2.09017,-0.34025 0.889841,0.33291 1.59832,-0.19025 2.362553,0.56611 0.911715,0.42567 2.133949,1.43984 3.003073,0.10055 0.83141,-0.4297 2.57726,-2.02115 3.17,-0.92053 0.0385,1.85273 -0.42171,3.9362 -0.68143,5.54846 1.31338,1.59004 -0.24741,3.52426 0.36861,5.17417 0.0876,0.31629 0.17208,0.63495 0.25378,0.95157 z m -12.897559,-9.86742 c -0.7747,0.95777 -1.253113,3.04593 -2.359534,3.16639 -1.339934,0.064 -1.226682,-1.67773 -1.523805,-2.62382 -0.002,-0.83359 -0.543637,-2.6603 0.06381,-2.83868 1.380205,0.55575 2.771195,1.21049 3.819525,2.29611 z m -4.502599,12.4502 c 1.094178,1.19151 3.779367,2.58556 3.012345,4.37236 -1.476195,0.99863 -2.908811,2.06911 -4.367716,3.09757 -1.603334,-2.60186 -3.096843,-5.33725 -3.746077,-8.34888 -0.609873,-1.50472 0.977186,-3.03586 2.196128,-1.6287 0.89199,0.93046 2.101291,1.4954 2.90532,2.50765 z" /></g><g
       id="g42"
       transform="matrix(0.84349897,-0.3710863,-0.53713079,-0.58274618,133.82202,384.99579)"
       style="fill:#000000;fill-opacity:0.09576838"><path
         id="path42"
         style="fill:#000000;fill-opacity:0.09576838;stroke-width:0.603154"
         d="m 108.70583,218.05216 c -2.35475,1.56197 -5.04173,2.64714 -7.84469,3.04628 0.75935,-1.60158 1.85548,-3.10674 1.94918,-4.93706 0.22043,-2.16968 1.08704,-4.22337 2.33475,-5.99848 0.52971,-1.08918 2.57219,-2.21586 2.74057,-0.28667 0.24163,1.42892 -0.31508,2.91213 -0.25642,4.26842 1.60333,-0.84305 3.52359,-1.22005 5.36606,-1.00507 0.51753,0.19238 -0.93809,1.31823 -1.11929,1.97564 -0.73307,1.28478 -1.98699,2.11027 -3.17016,2.93694 z m -5.48027,-4.18437 c 0.93385,0.6618 0.41489,2.33327 0.74671,3.399 0.13668,1.31132 0.27336,2.62263 0.41004,3.93394 -3.95202,2.17781 -8.540113,2.71245 -12.95967,3.15805 -2.296765,0.17733 -4.606038,0.20606 -6.905435,0.0608 0.189125,-2.63669 0.476713,-5.26488 0.705497,-7.89816 0.370174,0.4518 1.899963,2.07696 0.714085,0.82047 -1.213374,-1.18224 -0.239019,-2.89254 0.231382,-4.18737 0.916452,-1.65454 -0.605896,-3.60002 0.472014,-5.19347 1.169251,-1.52629 2.729212,-2.70258 3.94168,-4.17683 0.784133,-0.0945 1.325799,-0.82093 2.076941,-0.99653 0.454485,-0.79643 1.437697,0.20523 2.09017,-0.34025 0.889841,0.33291 1.59832,-0.19025 2.362553,0.56611 0.911715,0.42567 2.133949,1.43984 3.003073,0.10055 0.83141,-0.4297 2.57726,-2.02115 3.17,-0.92053 0.0385,1.85273 -0.42171,3.9362 -0.68143,5.54846 1.31338,1.59004 -0.24741,3.52426 0.36861,5.17417 0.0876,0.31629 0.17208,0.63495 0.25378,0.95157 z m -12.897559,-9.86742 c -0.7747,0.95777 -1.253113,3.04593 -2.359534,3.16639 -1.339934,0.064 -1.226682,-1.67773 -1.523805,-2.62382 -0.002,-0.83359 -0.543637,-2.6603 0.06381,-2.83868 1.380205,0.55575 2.771195,1.21049 3.819525,2.29611 z m -4.502599,12.4502 c 1.094178,1.19151 3.779367,2.58556 3.012345,4.37236 -1.476195,0.99863 -2.908811,2.06911 -4.367716,3.09757 -1.603334,-2.60186 -3.096843,-5.33725 -3.746077,-8.34888 -0.609873,-1.50472 0.977186,-3.03586 2.196128,-1.6287 0.89199,0.93046 2.101291,1.4954 2.90532,2.50765 z" /></g><g
       id="g43"
       transform="matrix(0.84349897,-0.3710863,-0.53713079,-0.58274618,133.82202,385.52496)"
       style="fill:#000000;fill-opacity:0.09576838"><path
         id="path43"
         style="fill:#000000;fill-opacity:0.09576838;stroke-width:0.603154"
         d="m 108.70583,218.05216 c -2.35475,1.56197 -5.04173,2.64714 -7.84469,3.04628 0.75935,-1.60158 1.85548,-3.10674 1.94918,-4.93706 0.22043,-2.16968 1.08704,-4.22337 2.33475,-5.99848 0.52971,-1.08918 2.57219,-2.21586 2.74057,-0.28667 0.24163,1.42892 -0.31508,2.91213 -0.25642,4.26842 1.60333,-0.84305 3.52359,-1.22005 5.36606,-1.00507 0.51753,0.19238 -0.93809,1.31823 -1.11929,1.97564 -0.73307,1.28478 -1.98699,2.11027 -3.17016,2.93694 z m -5.48027,-4.18437 c 0.93385,0.6618 0.41489,2.33327 0.74671,3.399 0.13668,1.31132 0.27336,2.62263 0.41004,3.93394 -3.95202,2.17781 -8.540113,2.71245 -12.95967,3.15805 -2.296765,0.17733 -4.606038,0.20606 -6.905435,0.0608 0.189125,-2.63669 0.476713,-5.26488 0.705497,-7.89816 0.370174,0.4518 1.899963,2.07696 0.714085,0.82047 -1.213374,-1.18224 -0.239019,-2.89254 0.231382,-4.18737 0.916452,-1.65454 -0.605896,-3.60002 0.472014,-5.19347 1.169251,-1.52629 2.729212,-2.70258 3.94168,-4.17683 0.784133,-0.0945 1.325799,-0.82093 2.076941,-0.99653 0.454485,-0.79643 1.437697,0.20523 2.09017,-0.34025 0.889841,0.33291 1.59832,-0.19025 2.362553,0.56611 0.911715,0.42567 2.133949,1.43984 3.003073,0.10055 0.83141,-0.4297 2.57726,-2.02115 3.17,-0.92053 0.0385,1.85273 -0.42171,3.9362 -0.68143,5.54846 1.31338,1.59004 -0.24741,3.52426 0.36861,5.17417 0.0876,0.31629 0.17208,0.63495 0.25378,0.95157 z m -12.897559,-9.86742 c -0.7747,0.95777 -1.253113,3.04593 -2.359534,3.16639 -1.339934,0.064 -1.226682,-1.67773 -1.523805,-2.62382 -0.002,-0.83359 -0.543637,-2.6603 0.06381,-2.83868 1.380205,0.55575 2.771195,1.21049 3.819525,2.29611 z m -4.502599,12.4502 c 1.094178,1.19151 3.779367,2.58556 3.012345,4.37236 -1.476195,0.99863 -2.908811,2.06911 -4.367716,3.09757 -1.603334,-2.60186 -3.096843,-5.33725 -3.746077,-8.34888 -0.609873,-1.50472 0.977186,-3.03586 2.196128,-1.6287 0.89199,0.93046 2.101291,1.4954 2.90532,2.50765 z" /></g><g
       id="g44"
       transform="matrix(0.84349897,-0.3710863,-0.53713079,-0.58274618,132.76368,385.52496)"
       style="fill:#000000;fill-opacity:0.09576838"><path
         id="path44"
         style="fill:#000000;fill-opacity:0.09576838;stroke-width:0.603154"
         d="m 108.70583,218.05216 c -2.35475,1.56197 -5.04173,2.64714 -7.84469,3.04628 0.75935,-1.60158 1.85548,-3.10674 1.94918,-4.93706 0.22043,-2.16968 1.08704,-4.22337 2.33475,-5.99848 0.52971,-1.08918 2.57219,-2.21586 2.74057,-0.28667 0.24163,1.42892 -0.31508,2.91213 -0.25642,4.26842 1.60333,-0.84305 3.52359,-1.22005 5.36606,-1.00507 0.51753,0.19238 -0.93809,1.31823 -1.11929,1.97564 -0.73307,1.28478 -1.98699,2.11027 -3.17016,2.93694 z m -5.48027,-4.18437 c 0.93385,0.6618 0.41489,2.33327 0.74671,3.399 0.13668,1.31132 0.27336,2.62263 0.41004,3.93394 -3.95202,2.17781 -8.540113,2.71245 -12.95967,3.15805 -2.296765,0.17733 -4.606038,0.20606 -6.905435,0.0608 0.189125,-2.63669 0.476713,-5.26488 0.705497,-7.89816 0.370174,0.4518 1.899963,2.07696 0.714085,0.82047 -1.213374,-1.18224 -0.239019,-2.89254 0.231382,-4.18737 0.916452,-1.65454 -0.605896,-3.60002 0.472014,-5.19347 1.169251,-1.52629 2.729212,-2.70258 3.94168,-4.17683 0.784133,-0.0945 1.325799,-0.82093 2.076941,-0.99653 0.454485,-0.79643 1.437697,0.20523 2.09017,-0.34025 0.889841,0.33291 1.59832,-0.19025 2.362553,0.56611 0.911715,0.42567 2.133949,1.43984 3.003073,0.10055 0.83141,-0.4297 2.57726,-2.02115 3.17,-0.92053 0.0385,1.85273 -0.42171,3.9362 -0.68143,5.54846 1.31338,1.59004 -0.24741,3.52426 0.36861,5.17417 0.0876,0.31629 0.17208,0.63495 0.25378,0.95157 z m -12.897559,-9.86742 c -0.7747,0.95777 -1.253113,3.04593 -2.359534,3.16639 -1.339934,0.064 -1.226682,-1.67773 -1.523805,-2.62382 -0.002,-0.83359 -0.543637,-2.6603 0.06381,-2.83868 1.380205,0.55575 2.771195,1.21049 3.819525,2.29611 z m -4.502599,12.4502 c 1.094178,1.19151 3.779367,2.58556 3.012345,4.37236 -1.476195,0.99863 -2.908811,2.06911 -4.367716,3.09757 -1.603334,-2.60186 -3.096843,-5.33725 -3.746077,-8.34888 -0.609873,-1.50472 0.977186,-3.03586 2.196128,-1.6287 0.89199,0.93046 2.101291,1.4954 2.90532,2.50765 z" /></g><g
       id="g45"
       transform="matrix(0.84349897,-0.3710863,-0.53713079,-0.58274618,133.82202,386.05413)"
       style="fill:#000000;fill-opacity:0.09576838"><path
         id="path45"
         style="fill:#000000;fill-opacity:0.09576838;stroke-width:0.603154"
         d="m 108.70583,218.05216 c -2.35475,1.56197 -5.04173,2.64714 -7.84469,3.04628 0.75935,-1.60158 1.85548,-3.10674 1.94918,-4.93706 0.22043,-2.16968 1.08704,-4.22337 2.33475,-5.99848 0.52971,-1.08918 2.57219,-2.21586 2.74057,-0.28667 0.24163,1.42892 -0.31508,2.91213 -0.25642,4.26842 1.60333,-0.84305 3.52359,-1.22005 5.36606,-1.00507 0.51753,0.19238 -0.93809,1.31823 -1.11929,1.97564 -0.73307,1.28478 -1.98699,2.11027 -3.17016,2.93694 z m -5.48027,-4.18437 c 0.93385,0.6618 0.41489,2.33327 0.74671,3.399 0.13668,1.31132 0.27336,2.62263 0.41004,3.93394 -3.95202,2.17781 -8.540113,2.71245 -12.95967,3.15805 -2.296765,0.17733 -4.606038,0.20606 -6.905435,0.0608 0.189125,-2.63669 0.476713,-5.26488 0.705497,-7.89816 0.370174,0.4518 1.899963,2.07696 0.714085,0.82047 -1.213374,-1.18224 -0.239019,-2.89254 0.231382,-4.18737 0.916452,-1.65454 -0.605896,-3.60002 0.472014,-5.19347 1.169251,-1.52629 2.729212,-2.70258 3.94168,-4.17683 0.784133,-0.0945 1.325799,-0.82093 2.076941,-0.99653 0.454485,-0.79643 1.437697,0.20523 2.09017,-0.34025 0.889841,0.33291 1.59832,-0.19025 2.362553,0.56611 0.911715,0.42567 2.133949,1.43984 3.003073,0.10055 0.83141,-0.4297 2.57726,-2.02115 3.17,-0.92053 0.0385,1.85273 -0.42171,3.9362 -0.68143,5.54846 1.31338,1.59004 -0.24741,3.52426 0.36861,5.17417 0.0876,0.31629 0.17208,0.63495 0.25378,0.95157 z m -12.897559,-9.86742 c -0.7747,0.95777 -1.253113,3.04593 -2.359534,3.16639 -1.339934,0.064 -1.226682,-1.67773 -1.523805,-2.62382 -0.002,-0.83359 -0.543637,-2.6603 0.06381,-2.83868 1.380205,0.55575 2.771195,1.21049 3.819525,2.29611 z m -4.502599,12.4502 c 1.094178,1.19151 3.779367,2.58556 3.012345,4.37236 -1.476195,0.99863 -2.908811,2.06911 -4.367716,3.09757 -1.603334,-2.60186 -3.096843,-5.33725 -3.746077,-8.34888 -0.609873,-1.50472 0.977186,-3.03586 2.196128,-1.6287 0.89199,0.93046 2.101291,1.4954 2.90532,2.50765 z" /></g><g
       id="g46"
       transform="matrix(0.84349897,-0.3710863,-0.53713079,-0.58274618,134.88036,384.99579)"
       style="fill:#000000;fill-opacity:0.09576838"><path
         id="path46"
         style="fill:#000000;fill-opacity:0.09576838;stroke-width:0.603154"
         d="m 108.70583,218.05216 c -2.35475,1.56197 -5.04173,2.64714 -7.84469,3.04628 0.75935,-1.60158 1.85548,-3.10674 1.94918,-4.93706 0.22043,-2.16968 1.08704,-4.22337 2.33475,-5.99848 0.52971,-1.08918 2.57219,-2.21586 2.74057,-0.28667 0.24163,1.42892 -0.31508,2.91213 -0.25642,4.26842 1.60333,-0.84305 3.52359,-1.22005 5.36606,-1.00507 0.51753,0.19238 -0.93809,1.31823 -1.11929,1.97564 -0.73307,1.28478 -1.98699,2.11027 -3.17016,2.93694 z m -5.48027,-4.18437 c 0.93385,0.6618 0.41489,2.33327 0.74671,3.399 0.13668,1.31132 0.27336,2.62263 0.41004,3.93394 -3.95202,2.17781 -8.540113,2.71245 -12.95967,3.15805 -2.296765,0.17733 -4.606038,0.20606 -6.905435,0.0608 0.189125,-2.63669 0.476713,-5.26488 0.705497,-7.89816 0.370174,0.4518 1.899963,2.07696 0.714085,0.82047 -1.213374,-1.18224 -0.239019,-2.89254 0.231382,-4.18737 0.916452,-1.65454 -0.605896,-3.60002 0.472014,-5.19347 1.169251,-1.52629 2.729212,-2.70258 3.94168,-4.17683 0.784133,-0.0945 1.325799,-0.82093 2.076941,-0.99653 0.454485,-0.79643 1.437697,0.20523 2.09017,-0.34025 0.889841,0.33291 1.59832,-0.19025 2.362553,0.56611 0.911715,0.42567 2.133949,1.43984 3.003073,0.10055 0.83141,-0.4297 2.57726,-2.02115 3.17,-0.92053 0.0385,1.85273 -0.42171,3.9362 -0.68143,5.54846 1.31338,1.59004 -0.24741,3.52426 0.36861,5.17417 0.0876,0.31629 0.17208,0.63495 0.25378,0.95157 z m -12.897559,-9.86742 c -0.7747,0.95777 -1.253113,3.04593 -2.359534,3.16639 -1.339934,0.064 -1.226682,-1.67773 -1.523805,-2.62382 -0.002,-0.83359 -0.543637,-2.6603 0.06381,-2.83868 1.380205,0.55575 2.771195,1.21049 3.819525,2.29611 z m -4.502599,12.4502 c 1.094178,1.19151 3.779367,2.58556 3.012345,4.37236 -1.476195,0.99863 -2.908811,2.06911 -4.367716,3.09757 -1.603334,-2.60186 -3.096843,-5.33725 -3.746077,-8.34888 -0.609873,-1.50472 0.977186,-3.03586 2.196128,-1.6287 0.89199,0.93046 2.101291,1.4954 2.90532,2.50765 z" /></g><g
       id="g47"
       transform="matrix(0.84349897,-0.3710863,-0.53713079,-0.58274618,132.23451,384.46662)"
       style="fill:#000000;fill-opacity:0.09576838"><path
         id="path47"
         style="fill:#000000;fill-opacity:0.09576838;stroke-width:0.603154"
         d="m 108.70583,218.05216 c -2.35475,1.56197 -5.04173,2.64714 -7.84469,3.04628 0.75935,-1.60158 1.85548,-3.10674 1.94918,-4.93706 0.22043,-2.16968 1.08704,-4.22337 2.33475,-5.99848 0.52971,-1.08918 2.57219,-2.21586 2.74057,-0.28667 0.24163,1.42892 -0.31508,2.91213 -0.25642,4.26842 1.60333,-0.84305 3.52359,-1.22005 5.36606,-1.00507 0.51753,0.19238 -0.93809,1.31823 -1.11929,1.97564 -0.73307,1.28478 -1.98699,2.11027 -3.17016,2.93694 z m -5.48027,-4.18437 c 0.93385,0.6618 0.41489,2.33327 0.74671,3.399 0.13668,1.31132 0.27336,2.62263 0.41004,3.93394 -3.95202,2.17781 -8.540113,2.71245 -12.95967,3.15805 -2.296765,0.17733 -4.606038,0.20606 -6.905435,0.0608 0.189125,-2.63669 0.476713,-5.26488 0.705497,-7.89816 0.370174,0.4518 1.899963,2.07696 0.714085,0.82047 -1.213374,-1.18224 -0.239019,-2.89254 0.231382,-4.18737 0.916452,-1.65454 -0.605896,-3.60002 0.472014,-5.19347 1.169251,-1.52629 2.729212,-2.70258 3.94168,-4.17683 0.784133,-0.0945 1.325799,-0.82093 2.076941,-0.99653 0.454485,-0.79643 1.437697,0.20523 2.09017,-0.34025 0.889841,0.33291 1.59832,-0.19025 2.362553,0.56611 0.911715,0.42567 2.133949,1.43984 3.003073,0.10055 0.83141,-0.4297 2.57726,-2.02115 3.17,-0.92053 0.0385,1.85273 -0.42171,3.9362 -0.68143,5.54846 1.31338,1.59004 -0.24741,3.52426 0.36861,5.17417 0.0876,0.31629 0.17208,0.63495 0.25378,0.95157 z m -12.897559,-9.86742 c -0.7747,0.95777 -1.253113,3.04593 -2.359534,3.16639 -1.339934,0.064 -1.226682,-1.67773 -1.523805,-2.62382 -0.002,-0.83359 -0.543637,-2.6603 0.06381,-2.83868 1.380205,0.55575 2.771195,1.21049 3.819525,2.29611 z m -4.502599,12.4502 c 1.094178,1.19151 3.779367,2.58556 3.012345,4.37236 -1.476195,0.99863 -2.908811,2.06911 -4.367716,3.09757 -1.603334,-2.60186 -3.096843,-5.33725 -3.746077,-8.34888 -0.609873,-1.50472 0.977186,-3.03586 2.196128,-1.6287 0.89199,0.93046 2.101291,1.4954 2.90532,2.50765 z" /></g><path
       id="rect59"
       style="fill:#5a3b25;stroke-width:0.596534;stroke-linejoin:round;paint-order:stroke markers fill"
       transform="matrix(0.95314494,-0.30251399,0.91768959,0.39729815,0,0)"
       d="m -291.76791,328.77628 2.20636,-2.34069 71.00795,2.34069 2.25405,33.38059 -2.25405,2.29565 h -73.21431 z"
       sodipodi:nodetypes="ccccccc" /><rect
       style="fill:#764d30;fill-opacity:1;stroke-width:0.596534;stroke-linejoin:round;paint-order:stroke markers fill"
       id="rect1"
       width="73.21431"
       height="35.676247"
       x="-289.54813"
       y="326.4707"
       transform="matrix(0.95314494,-0.30251399,0.91768959,0.39729815,0,0)" /><g
       id="g58"
       transform="translate(14.694001,25.266515)"><path
         d="m 46.326631,192.61133 c 0,-0.86112 -1.781848,-1.56002 -3.981123,-1.56002 -2.199251,0 -3.981115,0.6989 -3.981115,1.56002 0,0.85871 1.781864,1.55762 3.981115,1.55762 2.199275,0 3.981123,-0.69891 3.981123,-1.55762 z"
         fill="#b4b4b4"
         id="path18"
         style="stroke-width:0.610646" /><path
         d="m 55.154756,192.61133 c 0,-0.86112 -1.781862,-1.56002 -3.981131,-1.56002 -2.196888,0 -3.98112,0.6989 -3.98112,1.56002 0,0.85871 1.784232,1.55762 3.98112,1.55762 2.199269,0 3.981131,-0.69891 3.981131,-1.55762 z"
         fill="#b4b4b4"
         id="path19"
         style="stroke-width:0.610646" /><path
         d="m 57.838237,161.25852 c 0,-2.67872 -2.170661,-4.84701 -4.846998,-4.84701 -2.676335,0 -4.846983,2.16829 -4.846983,4.84701 0,2.67633 2.170648,4.84699 4.846983,4.84699 2.676337,0 4.846998,-2.17066 4.846998,-4.84699 z"
         fill="#b4b4b4"
         id="path20"
         style="stroke-width:0.610646" /><path
         d="m 45.374882,161.25852 c 0,-2.67872 -2.168267,-4.84701 -4.846972,-4.84701 -2.676397,0 -4.846997,2.16829 -4.846997,4.84701 0,2.67633 2.1706,4.84699 4.846997,4.84699 2.678705,0 4.846972,-2.17066 4.846972,-4.84699 z"
         fill="#b4b4b4"
         id="path21"
         style="stroke-width:0.610646" /><path
         d="m 55.588864,161.25852 c 0,-1.43355 -1.164012,-2.59762 -2.597625,-2.59762 -1.433574,0 -2.595229,1.16407 -2.595229,2.59762 0,1.4336 1.161655,2.59523 2.595229,2.59523 1.433613,0 2.597625,-1.16163 2.597625,-2.59523 z"
         fill="#8c8c8c"
         id="path22"
         style="stroke-width:0.610646" /><path
         d="m 43.125516,161.25852 c 0,-1.43355 -1.161661,-2.59762 -2.597606,-2.59762 -1.433613,0 -2.595243,1.16407 -2.595243,2.59762 0,1.4336 1.16163,2.59523 2.595243,2.59523 1.435945,0 2.597606,-1.16163 2.597606,-2.59523 z"
         fill="#8c8c8c"
         id="path23"
         style="stroke-width:0.610646" /><path
         d="m 65.497561,167.81103 c 4.677603,-2.07766 10.013605,5.4743 8.832861,5.54349 -11.707168,-15.12062 -13.136018,11.76927 -21.150736,15.01332 -2.041839,0.82529 -6.531037,0.99946 -6.531037,0.99946 -1.230833,0.18843 -1.381106,-1.9942 -0.04771,-2.00849 0,0 0.787157,0.76569 6.244806,-0.69649 5.529185,-2.68594 7.091581,-16.25128 12.651812,-18.85129 z"
         fill="#b4b4b4"
         id="path24"
         style="stroke-width:0.610646" /><path
         d="m 57.060642,180.14794 c 0,11.42337 -4.155258,12.80925 -10.299882,12.80925 -6.144612,0 -10.29987,-1.38588 -10.29987,-12.80925 -0.174156,-11.42572 4.501127,-20.59973 10.29987,-20.59973 5.798748,0 10.471595,9.17401 10.299882,20.59973 z"
         fill="#8c8c8c"
         id="path25"
         style="stroke-width:0.610646;fill:#a8a8a8;fill-opacity:1" /><path
         d="m 55.414769,164.91523 c 0,3.80699 -5.19289,9.51983 -8.654009,11.07747 -3.463501,-1.55764 -8.65638,-7.27048 -8.65638,-11.07747 2.771762,-8.65639 14.540998,-8.65639 17.310389,0 z"
         fill="#b4b4b4"
         id="path26"
         style="stroke-width:0.610646" /><path
         d="m 51.607757,166.99282 c 0,-0.47941 -0.388811,-0.86583 -0.865878,-0.86583 -0.479447,0 -0.865876,0.38642 -0.865876,0.86583 0,0.4771 0.386429,0.86351 0.865876,0.86351 0.477067,0 0.865878,-0.38641 0.865878,-0.86351 z"
         fill="#464646"
         id="path36"
         style="stroke-width:0.610646" /><path
         d="m 43.645516,166.99282 c 0,-0.47941 -0.38881,-0.86583 -0.865876,-0.86583 -0.479454,0 -0.865878,0.38642 -0.865878,0.86583 0,0.4771 0.386424,0.86351 0.865878,0.86351 0.477066,0 0.865876,-0.38641 0.865876,-0.86351 z"
         fill="#464646"
         id="path37"
         style="stroke-width:0.610646" /><path
         d="m 57.025702,192.83095 -20.52342,0.57485 c 2.871926,-1.36917 -0.553366,-6.54773 0.0215,-16.3801 4.097979,-5.8631 4.594121,2.68355 10.404796,2.68355 5.810669,0 5.154707,-8.38208 10.073253,-2.76464 1.121145,4.97347 -2.654842,14.01623 0.02387,15.88634 z"
         fill="#b30000"
         id="path56"
         style="fill:#20b2aa;stroke-width:0.610646" /><path
         d="m 44.766642,177.46447 c 0,-0.3077 0.248075,-0.55581 0.555779,-0.55581 0.305323,0 0.553398,0.24811 0.553398,0.55581 0,0.30532 -0.248075,0.55574 -0.553398,0.55574 -0.307704,0 -0.555779,-0.25042 -0.555779,-0.55574 z m -0.954133,-0.43416 c 0,-0.30772 0.248075,-0.55576 0.55578,-0.55576 0.305322,0 0.555784,0.24804 0.555784,0.55576 0,0.30532 -0.250462,0.55579 -0.555784,0.55579 -0.307705,0 -0.55578,-0.25047 -0.55578,-0.55579 z m -0.868265,-0.60821 c 0,-0.30533 0.250464,-0.55342 0.555787,-0.55342 0.307702,0 0.555777,0.24809 0.555777,0.55342 0,0.30769 -0.248075,0.55574 -0.555777,0.55574 -0.305323,0 -0.555787,-0.24805 -0.555787,-0.55574 z m -0.865876,-0.60589 c 0,-0.30532 0.248075,-0.55579 0.555785,-0.55579 0.305323,0 0.555786,0.25047 0.555786,0.55579 0,0.30532 -0.250463,0.55576 -0.555786,0.55576 -0.30771,0 -0.555785,-0.25044 -0.555785,-0.55576 z m -0.868258,-0.69417 c 0,-0.30532 0.250457,-0.55576 0.55578,-0.55576 0.307709,0 0.553397,0.25044 0.553397,0.55576 0,0.30531 -0.245688,0.5558 -0.553397,0.5558 -0.305323,0 -0.55578,-0.25049 -0.55578,-0.5558 z m -0.865858,-0.51996 c 0,-0.30772 0.248045,-0.55581 0.553366,-0.55581 0.307724,0 0.555798,0.24809 0.555798,0.55581 0,0.30531 -0.248074,0.55574 -0.555798,0.55574 -0.305321,0 -0.553366,-0.25043 -0.553366,-0.55574 z m -0.868276,-0.52004 c 0,-0.30769 0.248044,-0.55574 0.555809,-0.55574 0.305323,0 0.553366,0.24805 0.553366,0.55574 0,0.30533 -0.248043,0.55343 -0.553366,0.55343 -0.307765,0 -0.555809,-0.2481 -0.555809,-0.55343 z m -0.312468,-1.07577 c 0.307705,0 0.555748,0.2481 0.555748,0.55342 0,0.30772 -0.248043,0.55576 -0.555748,0.55576 -0.827729,-0.30056 -0.510499,-0.84678 0,-1.10918 z m 9.713065,4.62276 c 0,-0.30531 -0.248075,-0.55335 -0.555786,-0.55335 -0.305322,0 -0.553396,0.24804 -0.553396,0.55335 0,0.30771 0.248074,0.55581 0.553396,0.55581 0.307711,0 0.555786,-0.2481 0.555786,-0.55581 z m 0.954132,-0.43172 c 0,-0.30532 -0.248074,-0.55581 -0.555784,-0.55581 -0.305323,0 -0.553398,0.25049 -0.553398,0.55581 0,0.30771 0.248075,0.55337 0.553398,0.55337 0.30771,0 0.555784,-0.24566 0.555784,-0.55337 z m 0.868258,-0.60826 c 0,-0.30532 -0.248074,-0.55581 -0.555784,-0.55581 -0.307705,0 -0.555779,0.25049 -0.555779,0.55581 0,0.3077 0.248074,0.55574 0.555779,0.55574 0.30771,0 0.555784,-0.24804 0.555784,-0.55574 z m 0.865876,-0.60589 c 0,-0.30769 -0.248074,-0.55581 -0.553395,-0.55581 -0.307712,0 -0.555786,0.24812 -0.555786,0.55581 0,0.30533 0.248074,0.55581 0.555786,0.55581 0.305321,0 0.553395,-0.25048 0.553395,-0.55581 z m 0.86826,-0.69411 c 0,-0.3077 -0.248075,-0.55582 -0.555779,-0.55582 -0.305323,0 -0.555785,0.24812 -0.555785,0.55582 0,0.30532 0.250462,0.55574 0.555785,0.55574 0.307704,0 0.555779,-0.25042 0.555779,-0.55574 z m 0.865869,-0.52004 c 0,-0.30531 -0.248067,-0.55574 -0.55339,-0.55574 -0.305323,0 -0.55578,0.25043 -0.55578,0.55574 0,0.30533 0.250457,0.55344 0.55578,0.55344 0.305323,0 0.55339,-0.24811 0.55339,-0.55344 z m 0.868277,-0.52233 c 0,-0.30533 -0.248106,-0.55343 -0.553427,-0.55343 -0.307704,0 -0.555762,0.2481 -0.555762,0.55343 0,0.30769 0.248058,0.55574 0.555762,0.55574 0.305321,0 0.553427,-0.24805 0.553427,-0.55574 z m 0.865895,-0.51765 c 0,-0.30771 -0.245724,-0.55581 -0.553428,-0.55581 -0.305321,0 -0.555748,0.2481 -0.555748,0.55581 0,0.30533 0.250427,0.55337 0.555748,0.55337 0.307704,0 0.553428,-0.24804 0.553428,-0.55337 z m -9.288513,4.15288 c 0,-0.30533 0.245688,-0.55582 0.553398,-0.55582 0.305323,0 0.555781,0.25049 0.555781,0.55582 0,0.30769 -0.250458,0.55574 -0.555781,0.55574 -0.30771,0 -0.553398,-0.24805 -0.553398,-0.55574 z m 1.028078,0.0763 c 0,-0.31008 0.248075,-0.55581 0.555783,-0.55581 0.305323,0 0.555786,0.24573 0.555786,0.55581 0,0.30533 -0.250463,0.55336 -0.555786,0.55336 -0.307708,0 -0.555783,-0.24803 -0.555783,-0.55336 z"
         fill="#e6e6e6"
         id="path57"
         style="stroke-width:0.610646" /><path
         d="m 46.226327,157.23936 c -3.253593,0.062 -5.99912,2.44258 -7.547167,5.14987 -0.806296,1.50042 -1.381157,3.2727 -2.798037,4.32466 -0.741813,0.77045 -3.050845,-0.22184 -2.647698,1.10918 0.04532,1.06863 1.598181,1.65539 1.951195,1.79377 -1.013792,0.69887 -2.375776,1.33341 -2.664428,2.64293 -0.04532,1.06148 1.328642,-0.37927 2.044257,0.005 1.667306,-0.11927 0.846782,1.47177 -0.224229,1.7437 -0.992299,0.87542 1.316674,1.0925 1.9297,0.64165 1.89636,-0.2266 2.914915,-2.09909 3.263166,-3.79271 0.660719,-2.53796 0.686976,-5.43614 2.490284,-7.5138 1.660193,-1.79378 4.408095,-1.94399 6.652693,-1.41927 2.142029,0.49615 3.570847,2.44021 4.138558,4.46535 0.851543,2.56904 0.763306,5.39328 1.932142,7.85968 0.660719,1.42164 2.554695,1.88206 3.928647,1.33578 0.646368,-0.30771 1.645872,-1.36443 0.348251,-1.21415 -1.123527,-0.0788 -0.820586,-1.10918 0.159802,-1.05904 0.918351,-0.25524 2.173042,-1.63873 1.543284,-2.46646 -0.591531,0.05 -2.328085,0.11684 -0.927874,-0.36016 0.644046,-0.13831 2.688242,-1.30245 1.013792,-1.11876 -1.416941,-0.0215 -3.165341,-0.062 -4.067019,-1.32863 -1.211764,-2.34477 -1.416881,-5.16186 -3.167723,-7.23707 -1.722214,-2.25413 -4.522597,-3.59469 -7.3516,-3.56129 z"
         fill="#604020"
         id="path58"
         style="fill:#cd5c5c;stroke-width:0.610646" /><path
         d="m 48.125174,175.21986 c 1.505141,-0.26477 2.246978,0.8778 3.752127,1.14257 v -0.17171 c -1.486066,-0.26234 -2.263681,-1.23082 -3.752127,-0.97081 z"
         fill="#464646"
         id="path29"
         style="stroke-width:0.610646" /><path
         d="m 45.396352,175.21986 c -1.505148,-0.26477 -2.249372,0.8778 -3.752128,1.14257 v -0.17171 c 1.486061,-0.26234 2.26368,-1.23082 3.752128,-0.97081 z"
         fill="#464646"
         id="path30"
         style="stroke-width:0.610646" /><path
         d="m 48.060768,174.98611 c 1.440738,-0.52241 2.456889,-0.0476 3.895245,0.47465 v -0.17171 c -1.43358,-0.52241 -2.461663,-0.82297 -3.895245,-0.30294 z"
         fill="#464646"
         id="path31"
         style="stroke-width:0.610646" /><path
         d="m 45.458369,174.98611 c -1.438355,-0.52241 -2.456894,-0.0476 -3.895251,0.47465 v -0.17171 c 1.433588,-0.52241 2.461664,-0.82297 3.895251,-0.30294 z"
         fill="#464646"
         id="path32"
         style="stroke-width:0.610646" /><path
         d="m 47.922414,174.70704 c 1.285695,-0.83487 2.614325,-1.24755 3.90002,-0.41506 v -0.17172 c -1.290464,-0.83726 -2.609549,-0.25043 -3.90002,0.58684 z"
         fill="#464646"
         id="path33"
         style="stroke-width:0.610646" /><path
         d="m 45.599105,174.70704 c -1.285695,-0.83487 -2.616714,-1.24755 -3.902409,-0.41506 v -0.17172 c 1.292853,-0.83726 2.611944,-0.25043 3.902409,0.58684 z"
         fill="#464646"
         id="path34"
         style="stroke-width:0.610646" /><path
         d="m 48.318382,174.46846 c 0,-0.85869 -0.698902,-1.55757 -1.557622,-1.55757 -0.861108,0 -1.557623,0.69888 -1.557623,1.55757 0,0.86112 0.696515,1.55763 1.557623,1.55763 0.85872,0 1.557622,-0.69651 1.557622,-1.55763 z"
         fill="#464646"
         id="path35"
         style="stroke-width:0.610646" /><path
         d="m 42.042572,178.97435 c -0.784777,-2.15631 -2.36865,-3.55889 -3.537425,-3.13432 -1.166455,0.42459 -1.476539,2.51891 -0.6918,4.67528 0.784801,2.15394 2.36625,3.55891 3.535093,3.13195 1.16643,-0.42459 1.478904,-2.51654 0.694132,-4.67291 z"
         fill="#b4b4b4"
         id="path28"
         style="stroke-width:0.610646" /><path
         d="m 55.708122,180.51531 c 0.784802,-2.15637 0.474717,-4.25069 -0.694119,-4.67528 -1.166394,-0.42457 -2.750279,0.97801 -3.535056,3.13432 -0.784771,2.15637 -0.47468,4.24832 0.694132,4.67291 1.166413,0.42696 2.750305,-0.97801 3.535043,-3.13195 z"
         fill="#b4b4b4"
         id="path27"
         style="stroke-width:0.610646" /></g><g
       id="g1"><path
         d="m 98.451268,205.28623 c 0,-2.03805 4.695682,-3.69196 4.695682,-3.69196 0,0 0.60551,6.75483 -2.09457,6.75483 -1.418364,0 -2.601112,-1.02722 -2.601112,-3.06287 z"
         fill="#8c8c8c"
         id="path40-7"
         style="stroke-width:0.603154" /><path
         d="m 98.451268,205.28623 c 0.683265,-2.03805 4.273892,-3.09357 4.273892,-2.74954 0,0 0.34163,5.12917 -1.67278,5.12917 -1.418364,0.34162 -2.601112,0.34162 -2.601112,-2.37963 z"
         fill="#c0c0c0"
         id="path41-8"
         style="stroke-width:0.603154" /><path
         d="m 90.928341,205.28623 c 0,-2.03805 -4.695639,-3.69196 -4.695639,-3.69196 0,0 -0.603154,6.75483 2.094512,6.75483 1.420736,0 2.601127,-1.02722 2.601127,-3.06287 z"
         fill="#8c8c8c"
         id="path42-8"
         style="stroke-width:0.603154" /><path
         d="m 90.928341,205.28623 c -0.68326,-2.03805 -4.273914,-3.09357 -4.273914,-2.74954 0,0 -0.341626,5.12917 1.672787,5.12917 1.420736,0.34162 2.601127,0.34162 2.601127,-2.37963 z"
         fill="#c0c0c0"
         id="path43-3"
         style="stroke-width:0.603154" /><path
         d="m 88.278513,222.7456 c 0,0 -0.786392,-2.30717 -1.724088,-4.05397 -0.938763,-1.74719 -2.007836,-3.21092 -2.977141,-4.16518 -0.969305,-0.95427 -1.838844,-1.39907 -2.378536,-1.10842 -0.54076,0.29023 -0.650345,1.26061 -0.390049,2.59522 0.260296,1.33462 1.829232,4.78071 1.829232,4.78071 l 1.831849,3.12632 z"
         fill="#a3a3a3"
         id="path44-8"
         style="stroke-width:0.603154"
         sodipodi:nodetypes="ccscsccc" /><path
         d="m 107.26037,208.73727 c -1.16155,-0.39215 -3.12949,2.33904 -4.39464,6.09876 -4.135922,4.12355 -4.07737,3.66192 3.79774,2.35137 1.2652,-3.75967 1.76042,-8.05918 0.5969,-8.45013 z"
         fill="#a3a3a3"
         id="path45-1"
         style="stroke-width:0.603154"
         sodipodi:nodetypes="cccc" /><path
         d="m 84.517454,224.41984 c 0,0 0.213386,-5.50274 0.711625,-7.93895 0.498238,-2.43622 1.23834,-4.6267 2.162804,-6.46459 0.924463,-1.83788 2.033288,-3.32317 3.268972,-4.34898 1.235684,-1.02582 2.598227,-1.59216 4.030128,-1.59216 1.431902,0 2.794301,0.56634 4.029768,1.59216 1.235466,1.02581 2.343999,2.5111 3.268169,4.34898 0.92417,1.83789 2.16199,7.81569 2.16199,7.81569 -0.83211,1.86825 -6.341979,7.44543 -19.633456,6.58785 z"
         fill="#8c8c8c"
         id="path46-5"
         style="stroke-width:0.603154"
         sodipodi:nodetypes="sssssssss" /><path
         d="m 113.31335,213.17199 c -1.59417,-0.17788 -2.95087,-0.0517 -4.12159,0.31387 -1.17072,0.36559 -2.15547,0.97062 -3.00577,1.75048 -0.8503,0.77985 -5.08136,2.49188 -5.36471,5.86916 6.66081,-0.93788 10.77328,-5.40373 10.77328,-5.40373 0.36926,-1.16071 1.12918,-1.68101 1.71879,-2.52978 z"
         fill="#666666"
         id="path47-3"
         style="stroke-width:0.603154"
         sodipodi:nodetypes="cssccc" /><path
         d="m 103.23881,209.37398 c 0,3.76267 -5.129168,7.69492 -8.547827,7.69492 -3.421016,0 -8.550201,-3.93225 -8.550201,-7.69492 2.735418,-8.54783 14.362628,-8.54783 17.098028,0 z"
         fill="#b0aca9"
         id="path48-5"
         style="stroke-width:0.603154" /><path
         d="m 92.980474,207.32422 -0.391108,-0.14379 -0.266232,-0.79163 -0.77986,-0.28748 -0.266239,-0.78928 -0.782211,-0.2874 -0.263881,-0.7893 0.181418,-0.43823 0.829336,-0.0614 0.473572,-0.68561 0.831689,-0.0588 0.473572,-0.68567 0.859966,0.40998 0.751586,-0.36045 0.751587,0.36045 0.749227,-0.36045 0.598442,0.57721 0.831696,0.0614 0.473567,0.6856 0.829336,0.0588 0.473572,0.68567 -0.372261,0.51593 -0.782212,0.28747 -0.266237,0.79164 -0.779862,0.28746 -0.266232,0.78929 -0.782217,0.28741 -0.699749,0.12019 -0.751589,-0.36044 -0.751585,0.36044 -0.37462,-0.17903 h -0.532471"
         fill="#666666"
         id="path49-4"
         style="stroke-width:0.603154" /></g></g></svg>
